<svg xmlns="http://www.w3.org/2000/svg" xmlns:xlink="http://www.w3.org/1999/xlink"><defs><style>
    .sprite-symbol-usage {display: none;}
    .sprite-symbol-usage:target {display: inline;}
  </style><symbol class="icon" viewBox="0 0 1024 1024" id="add"><defs><style></style></defs><path d="M972.8 460.8H563.2V51.2a51.2 51.2 0 0 0-102.4 0v409.6H51.2a51.2 51.2 0 1 0 0 102.4h409.6v409.6a51.2 51.2 0 1 0 102.4 0V563.2h409.6a51.2 51.2 0 1 0 0-102.4z" /></symbol><symbol class="icon" viewBox="0 0 1024 1024" id="github"><defs><style></style></defs><path d="M0 520.886c0-69.368 13.51-135.697 40.498-199.02 26.987-63.323 63.322-117.826 109.006-163.51 45.65-45.65 100.154-81.985 163.51-109.006A502.289 502.289 0 0 1 512 8.92c69.335 0 135.663 13.477 198.986 40.497 63.356 26.988 117.86 63.323 163.51 109.007 45.684 45.65 82.02 100.154 109.006 163.51A502.289 502.289 0 0 1 1024 520.852c0 111.318-32.504 211.472-97.511 300.494-64.975 88.989-148.48 150.825-250.484 185.476-5.351 0-9.348-.99-11.99-2.973-2.676-1.982-4.196-3.997-4.526-6.012a59.458 59.458 0 0 1-.495-8.984 7.663 7.663 0 0 1-.991-3.006v-128.99c0-40.63-14.336-75.314-43.008-103.986 76.667-13.345 134.011-41.819 171.999-85.487 37.987-43.669 57.013-96.52 57.013-158.522 0-58.005-18.663-108.346-56.022-150.99 13.345-42.678 11-87.668-6.97-135.003-18.697-1.322-39.011 1.85-61.01 9.513-22 7.663-38.318 14.831-49.02 21.47-10.637 6.673-20.316 13.016-28.97 19.027-38.68-10.669-81.854-16.02-129.486-16.02-47.7 0-90.509 5.351-128.529 16.02-7.333-5.35-15.855-11.164-25.5-17.507-9.68-6.342-26.493-14.005-50.507-22.99-23.982-9.018-45.65-12.85-65.008-11.495-18.663 47.996-20.645 93.646-5.979 136.984-36.665 42.678-54.998 92.986-54.998 150.99 0 62.002 18.663 114.689 55.99 157.994 37.326 43.339 94.67 72.01 171.998 86.016a142.303 142.303 0 0 0-39.969 70.029c-56.683 13.972-96.355 3.963-119.015-30.06-42.017-61.308-79.674-83.307-113.003-65.965-4.69 4.657-3.997 9.48 1.982 14.501 6.012 4.988 14.996 11.66 27.02 19.985 11.99 8.357 20.976 17.507 26.987 27.515.661 1.322 2.51 6.177 5.517 14.502a831.917 831.917 0 0 0 8.985 23.981c2.973 7.663 8.654 16.186 17.011 25.5 8.324 9.349 18.003 17.178 29.003 23.52 11 6.309 26.161 11 45.485 14.006 19.324 2.972 41.323 3.138 65.998.495v100.484c0 .991-.165 2.643-.495 5.021-.33 2.312-.991 3.964-1.982 4.955-.991 1.024-2.345 2.015-4.03 3.039a12.52 12.52 0 0 1-6.474 1.486c-2.676 0-6.012-.33-10.009-.99-101.343-35.345-183.825-97.182-247.51-185.51C31.842 731.037 0 631.577 0 520.92z" /></symbol><symbol class="icon" viewBox="0 0 1024 1024" id="linux"><defs><style></style></defs><path d="M756.172 486.501c-14.613-32.318-35.182-56.261-55.93-67.981-5.647-30.227-9.29-62.964-15.698-92.019-19.148-86.832-67.39-166.668-164.602-166.668-97.213 0-161.228 73.786-164.603 166.668 0 0-.112-.038-.115 0-3.27 37.847-14.324 67.94-24.306 99.715-16.716 13.128-32.605 33.916-44.528 60.284-56.304 124.522-64.505 236.939-41.01 252.357 9.64 6.325 29.25-4.816 52.307-27.427 4.129 43.47 15.713 68.049 29.597 91.734-19.064 12.155-30.66 27.063-30.66 40.426 0 28.85 54.005 39.571 120.628 39.571 46.034 0 86.04-5.121 106.372-17.804 20.332 12.682 60.337 17.804 106.373 17.804 66.619 0 120.627-10.723 120.627-39.57 0-13.224-11.352-27.958-30.058-40.042 11.954-21.521 23.39-50.313 29.332-87.325 20.86 19.357 38.35 28.492 47.282 22.633 23.497-15.417 15.295-127.834-41.008-252.356zM574.568 257.43c20.118 0 36.427 28.295 36.427 63.2 0 10.104-1.373 19.645-3.804 28.112-4.862-1.666-10.037-3.112-15.73-4.366 4.66-5.117 7.719-12.347 7.719-20.367 0-15.514-11.148-28.09-24.56-28.09s-24.56 12.577-24.56 28.09c0 5.617 1.558 10.845 4.014 15.234a407.406 407.406 0 0 0-14.524-.822c-.955-5.643-1.44-11.61-1.44-17.79-.001-34.904 16.34-63.201 36.458-63.201zm-109.28-.002c20.117 0 36.426 28.297 36.426 63.202 0 6.18-.516 12.15-1.47 17.792-4.96.194-9.764.466-14.5.82 2.455-4.389 3.94-9.616 3.94-15.233 0-15.514-11.078-28.663-24.49-28.663h-.083c-13.411 0-24.545 13.15-24.545 28.662v.001c0 8.019 3.13 15.247 7.788 20.364-5.707 1.255-10.93 2.704-15.801 4.375-2.434-8.468-3.748-18.015-3.748-28.123 0-34.905 16.365-63.197 36.482-63.197zm52.839 159.427c41.016 0 76.847-14.91 96.304-32.756-13.05 22.595-51.246 44.567-96.304 44.567-45.062 0-83.253-21.97-96.305-44.567 19.46 17.845 55.29 32.756 96.305 32.756zm-95.182 4.25c21.874 18.42 57.167 32.806 96.99 32.806 40.586 0 76.47-14.943 98.237-33.868 44.271 12.678 78.276 97.051 78.276 199.996 0 111.765-40.081 142.956-89.867 142.956H437.852c-49.786 0-89.866-31.19-89.866-142.956 0-100.356 32.318-183.084 74.959-198.933zm63.222 449.508c-13.022 2.745-25.325-.633-33.373-6.361-7.17 6.503-18.087 11.47-30.291 11.47-11.08 0-21.064-4.084-28.178-9.697-7.66 6.88-20.513 11.5-34.43 9.49-21.433-3.095-37.185-20.824-35.925-33.058.179-1.737.774-3.244 1.585-4.588 4.475 10.634 17.681 21.891 34.34 24.297 13.917 2.01 26.77-2.61 34.43-9.489 7.115 5.613 17.1 9.698 28.178 9.698 12.204 0 23.12-4.967 30.29-11.471 8.048 5.728 20.352 9.106 33.374 6.36 9.25-1.95 17.273-6.628 23.248-12.285.223 3.633 1.335 6.968 3.234 10.023-6.16 7.105-15.464 13.288-26.482 15.61zm245.678-39.42a11.166 11.166 0 0 1 1.41 3.963c1.823 12.133-13.084 30.974-34.343 35.457-13.022 2.745-25.325-.633-33.372-6.361-7.17 6.503-18.087 11.47-30.291 11.47-11.08 0-21.064-4.084-28.178-9.697-7.66 6.88-20.513 11.5-34.429 9.49-18.098-2.613-32.144-15.66-35.32-27.021.365-1.573.558-3.205.558-4.902 0-1.372-.123-2.76-.363-4.162.029-.067.055-.136.085-.202l1.35.024c4.995 10.21 17.752 20.613 33.69 22.914 13.916 2.01 26.77-2.61 34.43-9.489 7.114 5.613 17.099 9.698 28.178 9.698 11.543 0 21.93-4.447 29.09-10.432 1.335.25 2.67.493 4.007.75 7.957 4.6 18.974 7.015 30.567 4.572 16.254-3.428 28.743-15.271 32.931-26.071z" /></symbol><symbol viewBox="0 0 171 25" id="logotype"><g fill="#7a7b82"><path d="M164.348 16.786a4.252 4.252 0 0 1-3.215-1.429c-.045-.09-.045-.178.045-.223l7.5-3.17 2.188-.937c.09-.045.09-.09.09-.134-.715-3.08-3.528-5.357-6.832-5.223-3.482.134-6.384 2.946-6.518 6.428a6.773 6.773 0 0 0 6.786 7.098c2.813 0 5.224-1.74 6.25-4.196.045-.09 0-.179-.088-.179l-2.188-.401c-.045 0-.134 0-.134.089-.804 1.34-2.232 2.277-3.884 2.277zm0-8.661a4.22 4.22 0 0 1 3.214 1.473c.045.09.045.179-.044.223 0 0-7.233 3.08-7.323 3.125-.089.045-.178-.044-.178-.089V12.5c-.045-2.455 1.92-4.375 4.33-4.375zM157.293 5.893h-2.143c-.044 0-.089.045-.134.09l-3.482 10.222c-.09.224-.357.224-.447 0l-3.482-10.223c0-.045-.045-.09-.134-.09h-2.143c-.09 0-.134.09-.134.18l4.42 12.857c0 .044.045.089.134.089h3.036c.045 0 .09-.045.134-.09l4.42-12.857c.09-.089.045-.178-.045-.178zM143.185 5.893h-2.188c-.089 0-.134.045-.134.134v12.857c0 .09.045.134.134.134h2.188c.09 0 .134-.045.134-.134V6.027c0-.045-.045-.134-.134-.134zM143.185 1.696h-2.188c-.089 0-.134.045-.134.134v2.188c0 .09.045.134.134.134h2.188c.09 0 .134-.045.134-.134V1.83c0-.089-.045-.134-.134-.134zM138.676 5.893h-2.456a.096.096 0 0 1-.09-.09V.224c0-.09-.044-.134-.133-.134h-2.188c-.09 0-.134.045-.134.134v5.58c0 .045-.044.09-.09.09h-2.41c-.09 0-.134.045-.134.134v2.187c0 .09.045.134.134.134h2.41c.046 0 .09.045.09.09v10.446c0 .09.045.134.134.134h2.188c.09 0 .134-.045.134-.134V8.437c0-.044.044-.089.089-.089h2.456c.089 0 .134-.044.134-.134V6.027c0-.045-.09-.134-.134-.134zM124.344 16.786c-2.679 0-4.777-2.411-4.286-5.179.268-1.518 1.786-3.08 3.304-3.393 1.652-.357 3.214.223 4.197 1.34a.136.136 0 0 0 .178 0L129.3 7.99a.136.136 0 0 0 0-.178c-1.295-1.43-3.215-2.277-5.313-2.188-3.438.179-6.295 2.991-6.474 6.429a6.773 6.773 0 0 0 6.786 7.098c1.965 0 3.75-.848 5-2.188.045-.044.045-.089 0-.134l-1.562-1.562a.136.136 0 0 0-.178 0c-.76.982-1.92 1.518-3.215 1.518zM109.744 16.786a4.252 4.252 0 0 1-3.214-1.429c-.045-.09-.045-.178.044-.223l7.501-3.17 2.188-.937c.09-.045.09-.09.09-.134-.715-3.08-3.528-5.357-6.832-5.223-3.482.134-6.384 2.946-6.518 6.428a6.773 6.773 0 0 0 6.786 7.098c2.813 0 5.224-1.74 6.25-4.196.045-.09 0-.179-.089-.179l-2.187-.401c-.045 0-.134 0-.134.089-.804 1.34-2.277 2.277-3.885 2.277zm0-8.661a4.22 4.22 0 0 1 3.215 1.473c.045.09.045.179-.045.223 0 0-7.232 3.08-7.322 3.125-.089.045-.178-.044-.178-.089V12.5c-.045-2.455 1.92-4.375 4.33-4.375zM101.128.09H98.94c-.09 0-.134.044-.134.133v18.66c0 .09.045.135.134.135h2.188c.089 0 .134-.045.134-.134V.224c0-.09-.09-.135-.134-.135zM96.35.09h-2.187c-.09 0-.134.044-.134.133v18.66c0 .09.044.135.134.135h2.187c.09 0 .134-.045.134-.134V.224c-.044-.09-.089-.135-.134-.135zM85.635 8.125c2.411 0 4.33 1.964 4.33 4.33s-1.964 4.33-4.33 4.33-4.33-1.964-4.33-4.33 1.92-4.33 4.33-4.33zm0-2.455a6.783 6.783 0 0 0-6.786 6.785 6.783 6.783 0 0 0 6.786 6.786 6.783 6.783 0 0 0 6.786-6.786 6.783 6.783 0 0 0-6.786-6.785zM73.179 16.786c-2.68 0-4.778-2.411-4.287-5.179.268-1.518 1.786-3.08 3.304-3.393 1.652-.357 3.215.223 4.197 1.34a.136.136 0 0 0 .179 0l1.562-1.563a.136.136 0 0 0 0-.178c-1.294-1.43-3.214-2.277-5.313-2.188-3.437.179-6.295 2.991-6.473 6.429a6.773 6.773 0 0 0 6.786 7.098c1.964 0 3.75-.848 5-2.188.045-.044.045-.089 0-.134l-1.562-1.562a.136.136 0 0 0-.179 0c-.759.982-1.92 1.518-3.214 1.518zM50.99 5.67c-1.43 0-3.082.893-3.84 1.964-.045.09-.224.045-.224-.045V6.027c0-.045-.044-.134-.134-.134h-2.187c-.045 0-.134.045-.134.134V18.929c0 .044.044.134.134.134h2.187c.045 0 .134-.045.134-.134V12.5c0-2.455 1.652-4.196 4.018-4.196 3.126 0 4.063 2.053 4.063 4.464v6.16c0 .045.045.134.134.134h2.188c.045 0 .134-.044.134-.133v-6.161c.045-3.75-1.741-7.098-6.474-7.098zM36.568 16.786a4.252 4.252 0 0 1-3.214-1.429c-.045-.09-.045-.178.044-.223l7.5-3.17 2.189-.937c.089-.045.089-.09.089-.134-.714-3.08-3.527-5.357-6.831-5.223-3.483.134-6.385 2.946-6.519 6.428a6.773 6.773 0 0 0 6.787 7.098c2.813 0 5.223-1.74 6.25-4.196.045-.09 0-.179-.089-.179l-2.188-.401c-.044 0-.134 0-.134.089-.803 1.34-2.232 2.277-3.884 2.277zm0-8.661a4.22 4.22 0 0 1 3.215 1.473c.044.09.044.179-.045.223 0 0-7.233 3.08-7.322 3.125-.09.045-.179-.044-.179-.089V12.5c0-2.455 1.965-4.375 4.331-4.375zM21.745 5.536c-1.696.044-3.036.714-3.973 1.83-.09.09-.223.045-.223-.09v-1.25c0-.088-.045-.133-.134-.133h-2.188c-.09 0-.134.045-.134.134v18.705c0 .09.045.134.134.134h2.143c.09 0 .134-.045.134-.134v-7.366c0-.134.134-.178.223-.09.938 1.117 2.322 1.831 4.108 1.831 4.152 0 7.456-3.75 6.652-8.036-.536-3.258-3.482-5.58-6.742-5.535zm.849 11.071c-2.947.491-5.492-2.053-5-5 .312-1.786 1.74-3.259 3.526-3.527 2.947-.49 5.492 2.054 5 5-.267 1.786-1.74 3.215-3.526 3.527zM7.056 5.67A6.783 6.783 0 0 0 .27 12.455a6.783 6.783 0 0 0 6.786 6.786 6.783 6.783 0 0 0 6.787-6.786A6.783 6.783 0 0 0 7.056 5.67zm0 2.455c2.411 0 4.331 1.964 4.331 4.33s-1.964 4.33-4.33 4.33c-2.367 0-4.331-1.964-4.331-4.33s1.964-4.33 4.33-4.33z" /></g></symbol><symbol class="icon" viewBox="0 0 1024 1024" id="mac"><defs><style></style></defs><path d="M849.124 704.896c-1.04 3.158-17.3 59.873-57.25 118.191-34.578 50.306-70.333 101.019-126.803 101.91-55.533.975-73.303-33.136-136.707-33.136-63.324 0-83.23 32.245-135.713 34.111-54.255 2.221-96.004-54.951-130.712-105.011-70.935-102.55-125.553-290.6-52.301-416.626 36.04-63.055 100.82-103.136 171.364-104.231 53.161-1.005 103.74 36.012 136.029 36.012 33.171 0 94.357-44.791 158.906-38.09 27.026 1.152 102.622 11.299 151.328 81.892-3.832 2.607-90.452 53.724-89.487 157.76 1.302 125.597 110.174 166.79 111.346 167.218M633.697 230.75c29.108-35.506 48.235-84.314 43.203-132.785-41.56 1.63-92.197 27.6-122.292 62.897-26.609 30.794-50.062 80.362-43.52 128.27 46.177 2.805 93.657-24.182 122.609-58.382" /></symbol><symbol viewBox="0 0 40 40" id="opencollective-icon"><g fill="none" fill-rule="evenodd"><path d="M32.779 19.921c0 2.523-.733 4.941-1.989 6.938l5.13 5.151c2.512-3.364 4.082-7.569 4.082-12.089 0-4.52-1.57-8.725-4.083-12.09l-5.129 5.152c1.256 1.997 1.989 4.31 1.989 6.938z" fill="#B8D3F4" /><path d="M20.014 32.746c-7.014 0-12.771-5.782-12.771-12.825 0-7.043 5.757-12.825 12.77-12.825 2.618 0 4.92.736 6.91 2.102l5.129-5.15c-3.35-2.524-7.537-4.1-12.038-4.1C9.022-.053.02 8.882.02 20.025.02 31.17 9.022 40 20.014 40c4.605 0 8.793-1.577 12.142-4.1l-5.129-5.151c-1.989 1.261-4.396 1.997-7.013 1.997z" fill="#3385FF" /></g></symbol><symbol class="icon" viewBox="0 0 1024 1024" id="twitter"><defs><style></style></defs><path d="M1024 512C1024 229.236 794.764 0 512 0S0 229.236 0 512s229.236 512 512 512 512-229.236 512-512zM236.311 693.946a215.57 215.57 0 0 0 26.997 1.722c53.015.093 101.795-19.037 140.474-51.153-49.525-1.164-91.276-36.166-105.658-84.2 6.888 1.442 14.01 2.28 21.27 2.326 10.334.047 20.295-1.35 29.79-4.049-51.759-11.45-90.764-60.556-90.764-119.063v-1.536c15.267 9.216 32.675 14.801 51.247 15.639-30.301-21.923-50.27-59.16-50.27-101.05 0-22.156 5.586-42.822 15.314-60.51 55.808 73.775 139.171 122.741 233.146 128.839-1.954-8.798-2.932-17.967-2.932-27.323 0-66.14 50.642-118.923 113.106-117.9 32.535.56 61.952 15.5 82.571 38.96 25.786-4.935 49.99-14.43 71.82-27.695-8.425 27.601-26.391 50.595-49.757 64.977 22.9-2.56 44.683-8.61 64.977-17.78-15.174 23.598-34.35 44.218-56.46 60.695.233 5.12.326 10.24.326 15.36 0 157.044-113.803 338.153-321.861 338.06-63.814.046-123.3-19.968-173.336-54.319z" /></symbol><symbol class="icon" viewBox="0 0 1024 1024" id="windows"><defs><style></style></defs><path d="M180.533 507.367c158.679-65.355 235.486-30.474 304.27 16.219l-79.44 273.045c-69.02-46.432-144.084-84.636-303.398-18.777l77.644-270.088.924-.399zM526.4 549.988c68.99 46.398 139.539 80.44 301.656 24.985l-75.66 263.244c-159.142 65.832-235.542 28.585-304.44-18.13L526.4 549.989zm-28.377-75.624c-41.513-27.97-86.199-54.114-149.668-54.582-41.865-.323-91.71 11.588-155.012 37.731l78.411-271.752c159.2-65.822 235.701-28.52 304.673 18.129l-78.404 270.474zm424.01-224.367c-158.987 65.7-235.394 28.754-304.214-17.613L539.391 504.37c68.767 46.628 151.876 84.897 304.316 16.685l78.327-271.058z" /></symbol></defs><use id="add-usage" xlink:href="#add" class="sprite-symbol-usage" /><use id="github-usage" xlink:href="#github" class="sprite-symbol-usage" /><use id="linux-usage" xlink:href="#linux" class="sprite-symbol-usage" /><use id="logotype-usage" xlink:href="#logotype" class="sprite-symbol-usage" /><use id="mac-usage" xlink:href="#mac" class="sprite-symbol-usage" /><use id="opencollective-icon-usage" xlink:href="#opencollective-icon" class="sprite-symbol-usage" /><use id="twitter-usage" xlink:href="#twitter" class="sprite-symbol-usage" /><use id="windows-usage" xlink:href="#windows" class="sprite-symbol-usage" /></svg>