<svg xmlns="http://www.w3.org/2000/svg" xmlns:xlink="http://www.w3.org/1999/xlink"><defs><style>
    .sprite-symbol-usage {display: none;}
    .sprite-symbol-usage:target {display: inline;}
  </style><symbol viewBox="0 0 513 434.23" id="developing_code"><defs></defs><path d="M32.04 202.97C15.72 222.46-1.56 244.71.11 270.09c1.33 20.12 14.62 38.22 14.42 58.35s-14 39-11 59c3.34 22.7 26.89 36.74 49.2 42.13 47.1 11.38 96.19-1 144.49-4.8 37.08-2.91 74.35-.69 111.47 1.53l104.29 6.2c14 .84 28.5 1.61 41.59-3.41 12-4.59 21.69-13.64 30-23.35 18.21-21.16 31.88-48.71 27.61-76.29-6.89-44.46-56.94-74.14-59.81-119-.94-14.68 3.15-30.86-4.86-43.19-3.15-4.85-7.86-8.46-12.75-11.53-30.48-19.1-68.64-19.56-104.61-19.42l-176.08.66c-19.43.07-52.14-6.34-69.21 3.54-8.64 4.99-52.82 52.99-52.82 62.46z" fill="#68e1fd" opacity=".18" style="isolation:isolate" /><path d="M479.44 363.26c.75 8.45-1.11 15.66-4.24 19.57s-7.81 6.35-12.65 7.65S442 395.72 437 396c4.86-1.51 23.56-7.16 26-11.63a57.72 57.72 0 0 0 2.68-6.33c1.65-4.15 3.81-23.57 7-26.76 3.71-3.68 6.4 7.88 6.76 11.98z" transform="translate(-3.02 -20.79)" opacity=".1" fill="url(#developing_code_a)" /><path d="M270.72 386.7a1205.8 1205.8 0 0 0-134.26-4.64c-12.72.28-27.64-.29-34.94-10.71 8.15-6.35 19.23-7 29.55-7.35 101.43-3.62 195.51-6.69 296.94-10.31-4.65-3.37 0-11.6-.94-17.27 10-3.06 31.16 1.69 37.73 8.64-6.15-4.41-19.27-6-24.87-3.71s-10.14 7.33-7.09 12.54c.9 1.54 2.35 2.85 2.59 4.62.4 2.95-2.69 5.09-5.44 6.23-24.23 10-53.69.43-77.1 12.26a8.92 8.92 0 0 0-3.56 2.75c-3.48 5.29 4.68 10.48 10.92 11.53a447.07 447.07 0 0 0 67.54 6.22l-76.69 3.56c2.19 2.62 1.08 6.86-1.47 9.13s-6.06 3-9.42 3.6c-28.38 4.85-68.58 2.92-92.36-16 7.23-4.24 15.25-7.51 22.87-11.09z" transform="translate(-3.02 -20.79)" opacity=".1" fill="url(#developing_code_d)" /><path d="M83.45 111.77l-11 12.54c-1.92 2.18-4 4.76-3.56 7.64a9 9 0 0 0 2.32 4.31 39.89 39.89 0 0 0 7.07 6.61c3.7-10.08 6.56-20.43 5.17-31.1z" fill="#68e1fd" /><path d="M86.61 132.51l-11 12.54c-1.92 2.18-4 4.77-3.56 7.64a9 9 0 0 0 2.27 4.31 39.92 39.92 0 0 0 7.08 6.6c3.78-10.07 6.6-20.41 5.21-31.09z" transform="translate(-3.02 -20.79)" fill="url(#developing_code_e)" /><path fill="#68e1fd" d="M94.25 0h331.11v331.96H94.25z" /><path fill="url(#developing_code_c)" d="M94.25 0h331.11v331.96H94.25z" /><path fill="#68e1fd" d="M41.608 385.457l60.064-296.018 2.058.417-60.064 296.018zM73.152 386.917L133.746 90.15l2.057.42L75.21 387.337z" /><path fill="#68e1fd" d="M98.47 108.76h32.1v2.1h-32.1zM93.41 133.82h32.1v2.1h-32.1zM88.34 158.87h32.1v2.1h-32.1zM83.27 183.93h32.1v2.1h-32.1zM78.2 208.99h32.1v2.1H78.2zM73.13 234.05h32.1v2.1h-32.1zM68.07 259.11h32.1v2.1h-32.1zM63 284.17h32.1v2.1H63zM57.93 309.23h32.1v2.1h-32.1zM52.86 334.29h32.1v2.1h-32.1zM47.79 359.34h32.1v2.1h-32.1z" /><path d="M141.84 352.47l-2.62-238.14-2.19-.42.2 18.13h-5.85c-.09-3.12-.52-6.14-1.62-8.18-3.09-5.75-7 0-8.12 3.85-.5 1.68-1.28 3.45-2.79 4.3h-5.9a10.09 10.09 0 0 0-2.1-.2 6.92 6.92 0 0 0-1.29.19h-3l-.23-18.45-2.19-.41.28 22.86c-.15.24-.3.49-.43.75-1.34 2.63-1.68 5.63-2 8.57-2.8 29.43-1.32 59.07.17 88.59.26 5.11.53 10.31 2.28 15.12a19 19 0 0 0 1.39 3l1.26 100.52zm-2.19-.49l-30.33-.07-.27-22.39 30.35.07zm-.27-24.44l-30.38-.07-.28-22.39 30.39.08zm-.27-24.43l-30.39-.11-.28-22.39 30.42.08zm-.27-24.44l-30.43-.08-.28-22.39h2a8.42 8.42 0 0 0 .86.4 6.79 6.79 0 0 0 5.3-.38h22.32zm-.27-24.44h-20.08a4.14 4.14 0 0 0 .54-1.56c.28-2.09-.88-4.05-1.67-6-1.89-4.68-1.7-9.84-.58-14.83l21.55.05zm-.27-24.44h-21c.36-1.31.78-2.6 1.23-3.86 2.24-6.18 5.28-12.12 6.76-18.5h12.77zm-.3-24.44h-12.31c1.26-7.35.27-15 .74-22.39h11.33zm-.27-24.44h-11.12a37 37 0 0 1 .93-5.3c.66-2.52 1.64-5 2.05-7.55a39 39 0 0 0-.18-9.53h8.08zm-.51-46.82l.25 22.39h-8.22a31.86 31.86 0 0 1-.08-3.24c.14-3.86 1.21-7.63 1.66-11.47a73.59 73.59 0 0 0 .54-7.67z" transform="translate(-3.02 -20.79)" opacity=".1" fill="url(#developing_code_f)" /><g opacity=".74" fill="#68e1fd"><path d="M130.85 13.8h64.76v6.76h-64.76zM130.85 26.89h39.53v6.36h-39.53z" /><path opacity=".54" d="M186.32 26.89h124.39v6.4H186.32z" /><path d="M322.35 26.89h70.02v6.4h-70.02zM151.41 39.98h54.35v6.71h-54.35z" /><path opacity=".48" d="M151.41 90.29h35.28v7.55h-35.28z" /><path d="M248.83 113.37h14.9v7.52h-14.9zM151.41 101.55h35.28v7.55h-35.28zM151.41 237.82h35.28v7.55h-35.28zM171.49 175.46h35.28v7.55h-35.28z" /><path opacity=".48" d="M171.49 187.85h35.28v7.55h-35.28z" /><path d="M171.49 211.5h35.28v7.55h-35.28zM171.49 223.89h35.28v7.55h-35.28zM215.42 187.85h35.28v7.55h-35.28z" /><path opacity=".48" d="M215.42 223.51h35.28v7.55h-35.28z" /><path d="M198.15 237.82h114.53v7.55H198.15zM168.86 53.07h64.76v6.76h-64.76z" /><path opacity=".52" d="M237.85 53.07h54.28v7.51h-54.28z" /><path d="M168.77 66.17h50.01v6.36h-50.01z" /><path opacity=".48" d="M168.77 114.22h73.12v5.93h-73.12z" /><path d="M363.23 66.17h50.01v6.36h-50.01zM223.58 66.17h103.2v7.05h-103.2zM336.58 66.17h22.75v7.17h-22.75z" /><path opacity=".48" d="M168.58 79.26h112.76v6.31H168.58z" /><path d="M168.58 251.01h74.37v6.59h-74.37zM188.57 128.53h64.76v6.76h-64.76z" /><path opacity=".48" d="M188.57 162.69h64.76v6.76h-64.76z" /><path d="M188.57 298.97h39.33v6.54h-39.33zM170.84 311.64h26.64v6.04h-26.64zM188.57 261.8h39.93v6.76h-39.93zM236.72 261.8h39.93v6.76h-39.93zM206.88 274.19h39.93v6.76h-39.93zM255.02 274.19h39.93v6.76h-39.93zM206.88 286.86h54.78v6.76h-54.78zM270.23 286.86h14.63v6.76h-14.63zM188.57 199.86h32.39v6.46h-32.39zM208.26 150.68h45.08v6.02h-45.08zM265.32 150.68h45.08v6.02h-45.08zM265.32 187.1h45.08v6.02h-45.08zM319.38 150.68h45.08v6.02h-45.08zM290.18 287.14h74.28v6.02h-74.28z" /><path opacity=".48" d="M265.16 128.53h64.76v6.76h-64.76z" /><path d="M209.6 138.67h64.76v6.76H209.6z" /><path opacity=".48" d="M286.18 138.67h64.76v6.76h-64.76z" /><path d="M338.08 128.53h64.76v6.76h-64.76z" /></g><path d="M124.07 108a5.11 5.11 0 0 1-.25-1.82 2.67 2.67 0 0 0 0-.8 3 3 0 0 0-.65-1 3.23 3.23 0 0 1-.46-3c.69-.14.93-.68 1.17-1.33a6.24 6.24 0 0 1 .83-1.9.52.52 0 0 1 .37-.23.47.47 0 0 1 .38.27c.29.58-.09 1.37.3 1.88.23.28.63.37.91.59.6.45.63 1.37 1.16 1.88a2.13 2.13 0 0 1 .34.33 1.06 1.06 0 0 1 .12.66 4.78 4.78 0 0 1-.89 2.47 4.12 4.12 0 0 0-1.06 1.83 2.29 2.29 0 0 1-.08.64.86.86 0 0 1-1 .43c-.37-.09-.88-.71-1.19-.9z" transform="translate(-3.02 -20.79)" fill="url(#developing_code_b)" /><path d="M101.54 111.37a4.52 4.52 0 0 0-1-1 3.37 3.37 0 0 0-2.11-.52 16.51 16.51 0 0 0-2.18.36c-3.14.58-6.36-.15-9.55 0-3.58.21-4.92 4-5.55 5.52a32 32 0 0 0-2.34 9.19c-.15 1.5-.19 3-.23 4.52-.18 6.13-.59 12.2-.35 18.33l.4 10.06a2.72 2.72 0 0 0 .45 1.71 2.6 2.6 0 0 0 1.35.71c5.65 1.63 11.61 1.67 17.49 1.67 3 0 6.42-.18 8.4-2.44 2.18-2.5 1.61-6.27 1.15-9.55-1.69-12.58 1.73-28.44-5.93-38.56z" fill="#68e1fd" /><path d="M104.56 132.16a4.52 4.52 0 0 0-1-1 3.37 3.37 0 0 0-2.11-.52 16.51 16.51 0 0 0-2.18.36c-3.14.58-6.36-.15-9.55 0-3.58.21-4.92 4-5.55 5.52a32 32 0 0 0-2.34 9.19c-.15 1.5-.19 3-.23 4.52-.18 6.13-.59 12.2-.35 18.33l.4 10.06a2.72 2.72 0 0 0 .45 1.71 2.6 2.6 0 0 0 1.35.71c5.65 1.63 11.61 1.67 17.49 1.67 3 0 6.42-.18 8.4-2.44 2.18-2.5 1.61-6.27 1.15-9.55-1.69-12.58 1.73-28.44-5.93-38.56z" transform="translate(-3.02 -20.79)" fill="url(#developing_code_g)" /><path d="M100.62 127.56a6 6 0 0 0 1.78-2 5.08 5.08 0 0 0 .29-2.39 8.65 8.65 0 0 0-1-3.67 4.62 4.62 0 0 0-2.94-2.29c-2-.41-4.06 1-5 2.78a13.28 13.28 0 0 0-1.19 6c-.07 2.59-2.06 6.55.37 7.46 2.81 1.05 5-2 5.47-3.34a5.83 5.83 0 0 1 2.22-2.55z" transform="translate(-3.02 -20.79)" fill="url(#developing_code_h)" /><path d="M98.5 93.51a4.74 4.74 0 0 1-.75 2.5 13 13 0 0 1-1.5 2.3 5.37 5.37 0 0 0-1 1.36 4.07 4.07 0 0 0 .22 2.61c-.43.22-.84-.76-1.24-.49a.5.5 0 0 0-.15.25 1.79 1.79 0 0 0 .43 1.79 1.2 1.2 0 0 1 .32.39c.12.31-.14.63-.26.94-.3.76.23 1.69-.17 2.4a2 2 0 0 1-1.74.76c-1.17.08-2.34.11-3.51.08a1.34 1.34 0 0 1-.69-.14 1.44 1.44 0 0 1-.53-1 37.16 37.16 0 0 1-1-8.79 4.2 4.2 0 0 1 .58-2.5c.35-.47.86-.78 1.23-1.21s.73-1.25 1.22-1.79a5.45 5.45 0 0 1 2.61-1.32c1.93-.51 5.71-1.24 5.93 1.86zM78.45 184.64a24 24 0 0 1 .11 4.56 22.21 22.21 0 0 1-.82 3.59 103.1 103.1 0 0 1-4.76 13.93c-1.38 3-3.07 6-4.17 9.12a53.38 53.38 0 0 0-2.19 11.37 4.71 4.71 0 0 0 2.46-1.59 124.88 124.88 0 0 0 22.13-30.41 31.63 31.63 0 0 0 3-7.51 36.31 36.31 0 0 0 .63-6.75 108.48 108.48 0 0 0-.22-14.65c-.18-1.7-.58-3.61-2-4.51a5.37 5.37 0 0 0-2.34-.63c-2.73-.25-5.52 0-8.21-.6-1-.2-2.55-1.16-3.29-.52s-.33 3.78-.37 4.64a161.62 161.62 0 0 0 .04 19.96z" fill="#3f3d56" /><path d="M81.47 205.43a24 24 0 0 1 .11 4.56 22.21 22.21 0 0 1-.82 3.59A103.1 103.1 0 0 1 76 227.51c-1.38 3-3.07 6-4.17 9.12A53.38 53.38 0 0 0 69.64 248a4.71 4.71 0 0 0 2.46-1.59A124.88 124.88 0 0 0 94.23 216a31.63 31.63 0 0 0 3-7.51 36.31 36.31 0 0 0 .63-6.75 108.48 108.48 0 0 0-.22-14.65c-.18-1.7-.58-3.61-2-4.51a5.37 5.37 0 0 0-2.34-.63c-2.73-.25-5.52 0-8.21-.6-1-.2-2.55-1.16-3.29-.52s-.33 3.78-.37 4.64a161.62 161.62 0 0 0 .04 19.96z" transform="translate(-3.02 -20.79)" fill="url(#developing_code_i)" /><path d="M99.21 198.76a49 49 0 0 1-.64 11.46l-2.59 19.42a2 2 0 0 0 2.85.67 5.86 5.86 0 0 0 2-2.58c3.93-7.72 7.91-15.59 9.37-24.12a67.26 67.26 0 0 0 .75-12.12 149.48 149.48 0 0 0-3.48-30.28 2 2 0 0 0-.61-1.25 2.08 2.08 0 0 0-1.46-.18l-8.91 1.12c-2.13.27-12.52-.05-12.52-.05s3.61 8.88 4.64 11.63c3.13 8.36 10.6 17.04 10.6 26.28z" fill="#3f3d56" /><path d="M67.62 249.51a2.74 2.74 0 0 0 .73 1 13.24 13.24 0 0 0 7.3 3.64 2.17 2.17 0 0 0 2.09-.5 1.6 1.6 0 0 0-.25-2 5.5 5.5 0 0 0-1.79-1.15 5.23 5.23 0 0 1-2.92-2.86c-1.43-4.76-6.39-2.04-5.16 1.87z" transform="translate(-3.02 -20.79)" fill="url(#developing_code_j)" /><path d="M98.05 254.69a4.25 4.25 0 0 0 2.15 1.75c2.16 1 4.59 1.86 6.93 1.32a2.92 2.92 0 0 0 1.75-1 1.44 1.44 0 0 0-.06-1.87c-.54-.49-1.39-.34-2.12-.42a3 3 0 0 1-2.11-1.28c-.27-.4-.44-.86-.69-1.27-2.15-3.62-7.7-1.04-5.85 2.77z" transform="translate(-3.02 -20.79)" fill="url(#developing_code_k)" /><path d="M64.43 225.5a1.74 1.74 0 0 1 1.59-.56c.84.2 1.28 1.19 2.08 1.53.36.15.76.16 1.13.29a5.49 5.49 0 0 1 1.8 1.39c1.42 1.3 3.47 2 4.41 3.65a1.18 1.18 0 0 1 .13 1.14 1.12 1.12 0 0 1-.78.45c-1.07.21-2.48.59-3.49.17a37.4 37.4 0 0 1-5.06-2.44c-.89-.54-1.53-2-2.17-2.87-.78-1.04-.53-1.83.36-2.75zM95.17 230.83c-.27-.11-.6-.25-.81-.05a.46.46 0 0 0-.11.16 3.22 3.22 0 0 0 .91 3.63 11.63 11.63 0 0 0 3.47 2 14.74 14.74 0 0 0 4 1.4 3.88 3.88 0 0 0 3.75-1.4 2 2 0 0 0 .35-1.43c-.21-1.1-1.46-1.58-2.5-2-1.32-.52-2.47-1.47-3.83-1.89-1.74-.57-3.6.25-5.23-.42z" fill="#3f3d56" /><path d="M101.46 110.73l7.86-3.91a14.27 14.27 0 0 0 2.79-1.66c4.67-3.8 4.41-10.82 6.83-16.33a1.7 1.7 0 0 1 .69-.9 1.78 1.78 0 0 1 .89-.06l3.17.38-2.53 18.61a17.7 17.7 0 0 1-.88 4 14.68 14.68 0 0 1-1.44 2.6 44 44 0 0 1-11.39 11.65 4.16 4.16 0 0 1-1.6.8 3.07 3.07 0 0 1-2-.37c-2.17-1.13-3.07-3.75-3.49-6.16a12.92 12.92 0 0 1 1.1-8.65z" fill="#68e1fd" /><path d="M104.48 131.52l7.86-3.91a14.27 14.27 0 0 0 2.79-1.66c4.67-3.8 4.41-10.82 6.83-16.33a1.7 1.7 0 0 1 .69-.9 1.78 1.78 0 0 1 .89-.06l3.17.38-2.53 18.61a17.7 17.7 0 0 1-.88 4 14.68 14.68 0 0 1-1.44 2.6 44 44 0 0 1-11.39 11.65 4.16 4.16 0 0 1-1.6.8 3.07 3.07 0 0 1-2-.37c-2.17-1.13-3.07-3.75-3.49-6.16a12.92 12.92 0 0 1 1.1-8.65z" transform="translate(-3.02 -20.79)" fill="url(#developing_code_l)" /><path fill="#68e1fd" d="M94.25 331.96h331.11v18.58H94.25z" /><path fill="url(#developing_code_m)" d="M94.25 335.34h331.11v15.2H94.25z" /><path d="M473.36 343.64c-1.46 6.8-5.45 14.1-12.83 20.3-13.54 11.38-31.05 14.33-43.36 14.81-1.52.06-3 .09-4.54.09-11 0-22-1.45-32.64-2.86l-7.54-1c-12.75-1.59-27.44-2.9-40.4 1.67l-1.14-3.24-1.19-3.36c14.39-5.08 30.05-3.7 43.59-2 2.53.31 5.06.65 7.6 1 11.82 1.56 24.05 3.18 36 2.72 11.21-.44 27.11-3.08 39.13-13.18 4.79-4 9-9.88 10.49-16.1a18.09 18.09 0 0 0-.25-9.92 16.76 16.76 0 0 0-1.79-3.8c-3.4-5.37-9.51-8.82-14.74-10.36-7.77-2.29-16.25-2-24.47-1.71h-.3l-.11-3.08-.14-3.91c8.44-.31 18-.66 27 2 10.47 3.08 18.4 10.08 21.2 18.71a25.73 25.73 0 0 1 .43 13.22z" fill="#68e1fd" /><path d="M476.52 360.63c-.6 7.83-4.57 16.83-13.39 24.25-13.54 11.37-31.06 14.33-43.37 14.8-1.51.06-3 .09-4.54.09-11 0-22-1.45-32.63-2.86l-7.55-1c-12.75-1.59-27.44-2.9-40.39 1.67l-2.33-6.6c.58-.2 1.16-.4 1.75-.58l1.14 3.24c13-4.57 27.65-3.26 40.4-1.67l7.54 1c10.65 1.41 21.62 2.86 32.64 2.86 1.51 0 3 0 4.54-.09 12.31-.48 29.82-3.43 43.36-14.81 7.38-6.2 11.37-13.5 12.83-20.3z" transform="translate(-3.02 -20.79)" fill="url(#developing_code_n)" /><path fill="#68e1fd" d="M303.17 337.21l47.3 10.8-9.01 41.39-31.3 15.01-42.89-18.67 28.77-12.86 7.13-35.67z" /><path fill="url(#developing_code_o)" d="M303.17 337.21l47.3 10.8-9.01 41.39-31.3 15.01-42.89-18.67 28.77-12.86 7.13-35.67z" /><path fill="#68e1fd" d="M300.07 336.37l47.3 10.79-9.01 41.39-30.69 14.93-42.89-18.68 28.16-12.77 7.13-35.66z" /><path fill="#68e1fd" d="M298.94 372.22l36.61 11.55 7.6-33.51-38.01-8.16-6.2 30.12z" /><path fill="url(#developing_code_p)" d="M298.94 372.22l36.61 11.55 7.6-33.51-38.01-8.16-6.2 30.12z" /><path d="M468.56 349.75l-1.06-.2c-3.4-5.37-9.51-8.82-14.74-10.36-7.77-2.29-16.52-2-24.74-1.7l-.09-3.36s18-1 28.66 4.12c6.76 3.26 11.97 11.5 11.97 11.5z" transform="translate(-3.02 -20.79)" fill="url(#developing_code_q)" /></symbol><linearGradient id="developing_code_a" x1="436.97" y1="373.26" x2="479.61" y2="373.26" gradientUnits="userSpaceOnUse"><stop offset="0" stop-opacity="0" /><stop offset=".99" /></linearGradient><linearGradient id="developing_code_d" x1="101.52" y1="375.76" x2="464.8" y2="375.76" xlink:href="#developing_code_a"></linearGradient><linearGradient id="developing_code_e" x1="71.64" y1="151.77" x2="155.54" y2="126.62" xlink:href="#developing_code_a"></linearGradient><linearGradient id="developing_code_c" x1="600.52" y1="-208.11" x2="48.66" y2="397.81" gradientUnits="userSpaceOnUse"><stop offset="0" stop-color="#fff" stop-opacity="0" /><stop offset=".99" stop-color="#fff" /></linearGradient><linearGradient id="developing_code_f" x1="4.06" y1="-30585.19" x2="183.14" y2="16602.44" xlink:href="#developing_code_a"></linearGradient><linearGradient id="developing_code_b" x1="122.5" y1="103.4" x2="128.26" y2="103.4" gradientUnits="userSpaceOnUse"><stop offset="0" stop-color="#ecc4d7" /><stop offset=".42" stop-color="#efd4d1" /><stop offset="1" stop-color="#f2eac9" /></linearGradient><linearGradient id="developing_code_g" x1="93.35" y1="162.24" x2="240.32" y2="-25.56" xlink:href="#developing_code_a"></linearGradient><linearGradient id="developing_code_h" x1="91.71" y1="125.38" x2="102.71" y2="125.38" xlink:href="#developing_code_b"></linearGradient><linearGradient id="developing_code_i" x1="88.22" y1="211.26" x2="98.74" y2="208.63" xlink:href="#developing_code_a"></linearGradient><linearGradient id="developing_code_j" x1="67.43" y1="249.68" x2="77.97" y2="249.68" xlink:href="#developing_code_b"></linearGradient><linearGradient id="developing_code_k" x1="97.68" y1="254.06" x2="109.2" y2="254.06" xlink:href="#developing_code_b"></linearGradient><linearGradient id="developing_code_l" x1="122.62" y1="134.69" x2="27.73" y2="24.88" xlink:href="#developing_code_a"></linearGradient><linearGradient id="developing_code_m" x1="259.81" y1="366.97" x2="259.81" y2="320.3" xlink:href="#developing_code_c"></linearGradient><linearGradient id="developing_code_n" x1="475.69" y1="313.82" x2="58.42" y2="710.82" xlink:href="#developing_code_a"></linearGradient><linearGradient id="developing_code_o" x1="316.11" y1="372.37" x2="401.7" y2="437.41" xlink:href="#developing_code_a"></linearGradient><linearGradient id="developing_code_p" x1="331.88" y1="310.54" x2="310.49" y2="409.08" xlink:href="#developing_code_c"></linearGradient><linearGradient id="developing_code_q" x1="459.35" y1="331.38" x2="389.13" y2="398.18" xlink:href="#developing_code_a"></linearGradient><symbol viewBox="0 0 519.25 482.26" id="drink_coffee"><defs></defs><path d="M488.24 316.94c-10.48 12.44-23.21 23-32.14 36.62-10.48 15.95-15.1 35-22.24 52.75a109.37 109.37 0 0 1-11.73 22.37 78.93 78.93 0 0 1-8.07 9.67c-24.31 24.94-63 32.93-98.51 36.8a917.38 917.38 0 0 1-143.43 4.33c-21-1-40.15-4.42-60 .89-19.37 5.17-40.13-4.14-55.76-15.07C35.53 450.74 17.78 431.12 8 407.66s-11.08-50.9-.92-74.21c13.94-32 46.79-52.52 61.46-84.19 7.34-15.86 9.64-33.54 11.46-50.94q4.4-42.31 5.86-84.91c.64-18.93.94-38.39 8.28-55.84 12-28.66 41.46-47 71.8-53.69s61.88-3.44 92.75.1c52.77 6.03 106.14 13.08 155.37 33.03l1.15.46c3.91 1.6 7.9 3.35 10.77 6.44 4.89 5.23 5.52 13 7.05 20 .25 1.13.52 2.24.83 3.35 8.83 32.3 39.82 53.65 59.89 80.91 36.03 48.84 33.65 122.34-5.51 168.77z" fill="#68e1fd" opacity=".18" style="isolation:isolate" /><g opacity=".4" fill="#68e1fd"><path d="M160.45 30.74a3.86 3.86 0 0 1 1.49-2 5.36 5.36 0 0 1 2.77-.59 3.41 3.41 0 0 1 2.76 1c.53.64.8 2 .8 3.93 0 3.48 0 6.71.11 9.71s.1 4.29.1 3.9c0 1.67-.28 2.8-.85 3.38a4.18 4.18 0 0 1-3 .88q-3.51 0-4.57-5c-.25-1-.44-1.75-.59-2.29a10.87 10.87 0 0 0-4.83-6.51 16 16 0 0 0-9-2.52 18.63 18.63 0 0 0-15.1 6.87q-5.69 6.89-5.69 18.46t5.77 18.46a18.91 18.91 0 0 0 15.23 6.87 23.82 23.82 0 0 0 6.28-.87 27.56 27.56 0 0 0 6.27-2.7 34.38 34.38 0 0 0 3.94-2.52c1.66-1.19 2.85-1.78 3.56-1.78a3.87 3.87 0 0 1 2.79 1.09 3.55 3.55 0 0 1 1.14 2.68 4.61 4.61 0 0 1-1.25 3.06 21 21 0 0 1-4.65 3.6 35.07 35.07 0 0 1-9 4.34 32.15 32.15 0 0 1-9.53 1.39q-13.14 0-21.69-9.28t-8.56-23.74q0-14.29 8.66-23.76a28.32 28.32 0 0 1 21.8-9.47 31.78 31.78 0 0 1 7.15.85 47.65 47.65 0 0 1 7.69 2.56zM200.76 36.64h-7.77a8.51 8.51 0 0 1-4.54-.88 3.29 3.29 0 0 1-1.31-3 3.48 3.48 0 0 1 1.15-3q1.11-.75 6.24-.75h15.16c2 0 3.27.26 4 .77a6.75 6.75 0 0 1 1.89 2.85l20.78 51.94h.91a6.94 6.94 0 0 1 3.93.8 3.38 3.38 0 0 1 1.07 2.87 3.72 3.72 0 0 1-1 3 6.26 6.26 0 0 1-3.87.77h-14.42c-2.7 0-4.42-.28-5.18-.83a3.45 3.45 0 0 1-1.15-3 3.15 3.15 0 0 1 1.25-2.84c.83-.55 2.4-.83 4.71-.83h4.94l-5.15-12.62h-27l-4.58 12.65h5.16c2.34 0 3.93.28 4.79.83a3.11 3.11 0 0 1 1.27 2.84 3.47 3.47 0 0 1-1.14 3c-.76.55-2.44.83-5 .83h-14c-2.27 0-3.77-.28-4.52-.83a3.52 3.52 0 0 1-1.11-3 3.31 3.31 0 0 1 1.13-2.87c.75-.53 2.18-.8 4.31-.8h1zm-2.72 28.18h21.75L208.4 36.64zM273.91 84.54h2.08a4.86 4.86 0 0 1 3.24.88 3.51 3.51 0 0 1 1 2.79 3.89 3.89 0 0 1-1 2.84 3.67 3.67 0 0 1-2.76 1h-26.16a3.68 3.68 0 0 1-2.77-1 3.89 3.89 0 0 1-1-2.84 3.46 3.46 0 0 1 1-2.82 5.7 5.7 0 0 1 3.54-.85h5.1v-47.9h-3.35c-2.69 0-4.42-.28-5.18-.83a3.46 3.46 0 0 1-1.15-3 3.89 3.89 0 0 1 1-2.84 3.68 3.68 0 0 1 2.77-1h47a3.43 3.43 0 0 1 2.74 1.09 4.76 4.76 0 0 1 .93 3.17v13.72a3.79 3.79 0 0 1-.93 2.79 3.68 3.68 0 0 1-2.74.93 3.42 3.42 0 0 1-3-1.17c-.53-.77-.8-2.53-.8-5.26v-7.6h-28.81v17.92h14v-1.39c0-2.58.24-4.32.74-5.21a2.8 2.8 0 0 1 2.66-1.33 2.92 2.92 0 0 1 2.47 1 5.38 5.38 0 0 1 .77 3.25v13.5a6.81 6.81 0 0 1-.71 3.67 2.92 2.92 0 0 1-2.53 1 2.78 2.78 0 0 1-2.66-1.31c-.5-.88-.74-2.62-.74-5.21v-1.52h-14v23.53zM316.92 92.01h-2.52a4 4 0 0 1-2.9-1 3.81 3.81 0 0 1-1-2.87 3.25 3.25 0 0 1 1.15-2.9c.76-.51 2.5-.77 5.23-.77h3.41V36.64h-3.41c-2.65 0-4.38-.28-5.18-.83a3.38 3.38 0 0 1-1.2-3 3.81 3.81 0 0 1 1-2.9 4.21 4.21 0 0 1 3-.93h46.31a3.43 3.43 0 0 1 2.74 1.09 4.76 4.76 0 0 1 .93 3.17v12.54a6.69 6.69 0 0 1-.8 3.83 3.38 3.38 0 0 1-2.87 1.06 3.42 3.42 0 0 1-3-1.17c-.55-.77-.83-2.53-.83-5.26v-7.6h-28.25v17.92h13.93v-2.82a7.36 7.36 0 0 1 .77-4 3 3 0 0 1 2.68-1.12 2.76 2.76 0 0 1 2.58 1.2q.71 1.19.71 5.19v9.89q0 4-.75 5.1a2.93 2.93 0 0 1-2.65 1.12 2.77 2.77 0 0 1-2.6-1.33c-.47-.85-.71-2.5-.71-4.94v-1.84h-13.96v23.53h28.28v-8.61q0-4.1.83-5.26a3.42 3.42 0 0 1 3-1.17 3.33 3.33 0 0 1 2.84 1.09c.55.72.83 2.1.83 4.12V88.1a4.09 4.09 0 0 1-1 2.93 3.57 3.57 0 0 1-2.71 1z" /></g><path fill="#3f3d56" d="M117.35 424.09h14.34v54.04h-14.34z" /><path d="M227.91 363.16s29.77 7.44 36.39 17.37-25.64 100.9-25.64 100.9l-45.49-1.65 13.23-77.77z" fill="#68e1fd" /><path d="M262.51 365.15s29.77 7.44 36.39 17.37-25.64 100.9-25.64 100.9l-45.49-1.65L241 404z" transform="translate(-34.6 -1.99)" fill="url(#drink_coffee_a)" /><path d="M433.86 67.18v339.13a109.37 109.37 0 0 1-11.73 22.37 78.93 78.93 0 0 1-8.07 9.67V37.01l1.15.46c3.91 1.6 7.9 3.35 10.77 6.44 4.89 5.23 5.52 13 7.05 20 .25 1.1.52 2.16.83 3.27z" fill="#68e1fd" /><path d="M468.46 69.17V408.3a109.37 109.37 0 0 1-11.73 22.37 78.93 78.93 0 0 1-8.07 9.67V39l1.15.46c3.91 1.6 7.9 3.35 10.77 6.44 4.89 5.23 5.52 13 7.05 20 .25 1.1.52 2.16.83 3.27z" transform="translate(-34.6 -1.99)" fill="url(#drink_coffee_d)" /><path d="M55.2 347.01c-4.59 5.67-6.47 13.16-6.63 20.46-.48 22.84 15 43.68 34.48 55.67s42.43 16.64 65 20.46c14.76 2.5 30.74 4.56 44-2.33 5-2.58 9.51-6.64 11.07-12 2.81-9.68-4.65-19.11-12-26a244.89 244.89 0 0 0-67.72-45.26c-16.24-7.26-54.08-28.43-68.2-11z" fill="#3f3d56" /><path d="M89.8 349c-4.59 5.67-6.47 13.16-6.63 20.46-.48 22.84 15 43.68 34.48 55.67s42.43 16.64 65 20.46c14.76 2.5 30.74 4.56 44-2.33 5-2.58 9.51-6.64 11.07-12 2.81-9.68-4.65-19.11-12-26A244.89 244.89 0 0 0 158 360c-16.24-7.26-54.08-28.43-68.2-11z" transform="translate(-34.6 -1.99)" fill="url(#drink_coffee_e)" /><path d="M315.55 475.15l-15.95 2.74-25.37 4.37-65.34-73.61s-104.78 8.82-120.21-22.06c-8.16-16.31-7.39-40-4.86-58.72a230.93 230.93 0 0 1 6-29.5s37.5 20.95 83.82 28.67 141.91 148.11 141.91 148.11z" fill="#68e1fd" /><path d="M334.2 479.88l-25.37 4.37-65.34-73.61s-104.78 8.82-120.21-22.06c-8.16-16.31-7.39-40-4.86-58.72 7.2 8 45.41 48 87.57 44.94 52.34-3.8 102.19 63.01 128.21 105.08z" transform="translate(-34.6 -1.99)" fill="url(#drink_coffee_f)" /><path d="M252.77 106.11a14.52 14.52 0 0 1-3.86 8.73 47.21 47.21 0 0 1-5.85 5.06 78.41 78.41 0 0 0-10.72 10.37c0-3.91 0-7.88 1.08-11.64a48.47 48.47 0 0 0 1.57-5.24c.56-3.24-.34-6.61.28-9.84a18.84 18.84 0 0 1 2.18-5.37c.86-1.57 1.88-3.21 3.52-3.92a5.58 5.58 0 0 1 4.49.22c4.34 2 7.59 6.84 7.31 11.63z" fill="#3f3d56" /><path d="M287.37 108.1a14.52 14.52 0 0 1-3.86 8.73 47.21 47.21 0 0 1-5.85 5.06 78.41 78.41 0 0 0-10.72 10.37c0-3.91 0-7.88 1.08-11.64a48.47 48.47 0 0 0 1.57-5.24c.56-3.24-.34-6.61.28-9.84a18.84 18.84 0 0 1 2.18-5.37c.86-1.57 1.88-3.21 3.52-3.92a5.58 5.58 0 0 1 4.49.22c4.34 2 7.59 6.84 7.31 11.63z" transform="translate(-34.6 -1.99)" fill="url(#drink_coffee_g)" /><path d="M249.3 96.42c1.27-2.61 2-5.67 1-8.4a1.06 1.06 0 0 0-1.29-.85 25.52 25.52 0 0 0-14.44 4.84 18.51 18.51 0 0 1 5.55 7 12.87 12.87 0 0 1 1 5.41c0 .39-.39 1.88-.06 2.06s1.47-1.11 1.71-1.36a34.9 34.9 0 0 0 6.53-8.7z" fill="#2b2a44" /><path d="M283.9 98.41c1.27-2.61 2-5.67 1-8.4a1.06 1.06 0 0 0-1.29-.85A25.52 25.52 0 0 0 269.17 94a18.51 18.51 0 0 1 5.55 7 12.87 12.87 0 0 1 1 5.41c0 .39-.39 1.88-.06 2.06s1.47-1.11 1.71-1.36a34.9 34.9 0 0 0 6.53-8.7z" transform="translate(-34.6 -1.99)" fill="url(#drink_coffee_h)" /><path fill="#fff" d="M296.55 247.64L166.97 351.85l315.96.55-61.76-106.97-124.62 2.21z" /><path fill="#68e1fd" d="M319.16 254.99l42.28-.37-2.21 14.7-45.22-1.83 5.15-12.5z" /><path fill="#68e1fd" d="M441.21 186.98l-38.23 113.96-127.93 2.2 11.89-18.28 3.18-4.87 35.58-.62 70.66-1.22 32.71-94.11 12.14 2.94z" /><path d="M382.36 286l-12.65-.71a5.16 5.16 0 0 0-2.54.29 7.06 7.06 0 0 0-2 1.94 13 13 0 0 1-7.61 4 37.09 37.09 0 0 1-8.75.26 41 41 0 0 1-9.38-1.23c-2.08-.6-4.05-1.51-6.09-2.22a29.84 29.84 0 0 0-11.8-1.54l3.17-4.88 35.59-.62c1.08.22 2.18.41 3.29.57 4.42.61 8.93.47 13.35 1.08 2.16.36 4.6 1.06 5.42 3.06z" transform="translate(-34.6 -1.99)" fill="url(#drink_coffee_i)" /><path d="M385.84 280.24s-1.93 4.31-3.77 3.58-13.24-5.51-13.24-5.51a11.73 11.73 0 0 1-4.36 3.47 16.73 16.73 0 0 1-5.93 1.67c-7.35.73-27.93-2.94-27.93-2.94l-85.29 6.25-19.12-17.27 1.59-46.91 1.12-33.08 30.75 68.59s90.16 4.13 104.22 10.75 21.96 11.4 21.96 11.4z" transform="translate(-34.6 -1.99)" fill="url(#drink_coffee_b)" /><path d="M364.47 281.78a16.73 16.73 0 0 1-5.93 1.67c-7.35.73-27.93-2.94-27.93-2.94l-85.29 6.25-19.12-17.27 1.59-46.91 18.63 41.57s90.16 4.14 104.22 10.75c5.64 2.65 10.28 5.01 13.83 6.88z" transform="translate(-34.6 -1.99)" fill="url(#drink_coffee_j)" /><path d="M195.4 188.62c.1.86.21 1.72.36 2.57 1.33 7.73 8.28 48.22 9.78 57.5 1.38 8.47-7.19 24.16-10.24 29.39-.74 1.27-1.42 2.58-2 3.91l-16 34.92a45.06 45.06 0 0 1-57.34 23.17 45.07 45.07 0 0 1-26.05-57.2c15.59-43.52 39.3-106.8 48.06-114.75 13.32-12.12 48.68-19.43 53.43 20.49z" fill="#68e1fd" /><path d="M227.1 178.28c-11.58-2.53-24.78 2.53-31.84 8.93-8.77 7.95-32.48 71.24-48.06 114.75a45 45 0 0 0 3.92 38.63 45 45 0 0 1-22.67-55.72c15.59-43.52 39.3-106.79 48.06-114.74 11.79-10.7 40.63-17.64 50.59 8.15z" transform="translate(-34.6 -1.99)" fill="url(#drink_coffee_k)" /><path d="M233.28 164.16s-12 6.07-8.54 18.61-22.06-16-22.06-16-3.31-19.3 16.54-17.64 14.06 15.03 14.06 15.03z" transform="translate(-34.6 -1.99)" fill="url(#drink_coffee_l)" /><path d="M204.2 168.57s3.86-7.58 7-9.23 9.51-1.93 9.92 3.72a45.24 45.24 0 0 0 2.9 11.72s5.51-8.69 9.23-10.62c0 0-10.47-7.17-13.37-11.71s-14.2 3.86-14.2 3.86-4.93 8.69-1.48 12.26z" transform="translate(-34.6 -1.99)" fill="url(#drink_coffee_m)" /><path d="M273.92 116.1c-1.84 6.53-5.49 13.08-3.94 19.68a24.66 24.66 0 0 1 .94 4 3.75 3.75 0 0 1-1.61 3.57 7.46 7.46 0 0 1-2.1.54c-5 1-8 6.12-10 10.83s-4.23 10-8.92 12c-3.94 1.75-8.58.67-12.48-1.16a40.83 40.83 0 0 1-16.22-14.18A27.92 27.92 0 0 1 215 141.1a31.44 31.44 0 0 1-.09-9.19 62.64 62.64 0 0 1 8.41-26 44.78 44.78 0 0 1 20.25-18 23.29 23.29 0 0 1 7.34-2c5.06-.38 10.07 1.6 14.22 4.53 3.21 2.26 8.9 6.34 10 10.31 1.25 4.55.04 10.95-1.21 15.35z" transform="translate(-34.6 -1.99)" fill="url(#drink_coffee_n)" /><path d="M226.46 99.01a138.79 138.79 0 0 0-22.83 30.17c-2.66 4.75-5.07 9.71-8.57 13.87a33.17 33.17 0 0 1-16.93 10.67 13.43 13.43 0 0 0-4 1.42c-2.85 1.83-3.43 5.67-5.16 8.57-2.26 3.8-6.56 6-10.87 6.94s-8.77 1-13.16 1.52c-16.16 2-27.22 53.8-34.91 68.16.92-7.23-23.16-26.84-1.09-63.2 2-3.31 1-7.84-.3-11.5-1.52-4.36-5.47-8.46-4.09-12.87a9.7 9.7 0 0 1 4-4.74c7-4.91 16.25-6.45 22.41-12.42-.37 1.13-2.2 1-2.88.07a4.27 4.27 0 0 1-.25-3.44c1.55-6.43 6-11.8 10.87-16.22s10.43-8.16 15.16-12.78c-3.3-1.28-4.43-5.72-3.11-9s4.36-5.53 7.46-7.22 6.45-3 9.16-5.27c3-2.52 5-6 7.74-8.87 4.28-4.5 10.1-7.16 15.8-9.63a45.91 45.91 0 0 1 10.87-3.59 29.75 29.75 0 0 1 12.71 1c11 3.17 20 10.89 28.37 18.6 1.94 1.77 3.86 3.55 5.78 5.35 1 1 2.13 2.16 1.91 3.55s-9.22.82-11.1 1.52c-5.05 1.87-9.27 5.56-12.99 9.34z" fill="#3f3d56" /><path d="M261.06 101a138.79 138.79 0 0 0-22.83 30.17c-2.66 4.75-5.07 9.71-8.57 13.87a33.17 33.17 0 0 1-16.93 10.67 13.43 13.43 0 0 0-4 1.42c-2.85 1.83-3.43 5.67-5.16 8.57-2.26 3.8-6.56 6-10.87 6.94s-8.77 1-13.16 1.52c-16.16 2-27.22 53.8-34.91 68.16.92-7.23-23.16-26.84-1.09-63.2 2-3.31 1-7.84-.3-11.5-1.52-4.36-5.47-8.46-4.09-12.87a9.7 9.7 0 0 1 4-4.74c7-4.91 16.25-6.45 22.41-12.42-.37 1.13-2.2 1-2.88.07a4.27 4.27 0 0 1-.25-3.44c1.55-6.43 6-11.8 10.87-16.22s10.43-8.16 15.16-12.78c-3.3-1.28-4.43-5.72-3.11-9s4.36-5.53 7.46-7.22 6.45-3 9.16-5.27c3-2.52 5-6 7.74-8.87 4.28-4.5 10.1-7.16 15.8-9.63a45.91 45.91 0 0 1 10.87-3.59 29.75 29.75 0 0 1 12.71 1c11 3.17 20 10.89 28.37 18.6 1.94 1.77 3.86 3.55 5.78 5.35 1 1 2.13 2.16 1.91 3.55s-9.22.82-11.1 1.52c-5.05 1.87-9.27 5.56-12.99 9.34z" transform="translate(-34.6 -1.99)" fill="url(#drink_coffee_o)" /><path opacity=".69" fill="url(#drink_coffee_c)" style="isolation:isolate" d="M396.36 278.15l5.33 20.95 36.94-112.48-9.56-2.58-32.71 94.11z" /><path opacity=".69" fill="url(#drink_coffee_p)" style="isolation:isolate" d="M399.12 270.39l4.56 17.96 31.67-96.41-8.2-2.2-28.03 80.65z" /><g fill="#fff"><path d="M338.83 281.46l-3.86 16.17 8.82-.37 1.29-15.44-6.25-.36zM379.54 281.27l3.72.14 2.35 14.34h-4.42l-1.65-14.48zM371.27 281.2h5.72l2.27 14.5-6.8-.09-1.19-14.41zM363.37 281.46h5.88l.73 14.33H363l.37-14.33zM355.19 281.64l5.97-.09.46 14.89h-7.08l.65-14.8zM347.47 281.82l5.23.1-.18 14.88h-6.43l1.38-14.98z" /></g><path d="M366.9 236.34s3.86 23.34 5.15 24.63l20.4-.37s4-20.58 3.49-23.34l-6.06-2.2z" fill="#68e1fd" /><path d="M405.18 240.39s3.13 20.77 4.42 22.06l17.45.14s4-20.58 3.49-23.34l-6.06-2.2z" transform="translate(-34.6 -1.99)" opacity=".69" fill="url(#drink_coffee_q)" style="isolation:isolate" /><path d="M392.45 260.6s4-20.58 3.49-23.34M364.66 228.92a1.58 1.58 0 0 1-.81-.78c-.25-.77.73-1.36 1.52-1.5a8.57 8.57 0 0 1 5.36.84 40 40 0 0 1-7.63-7.47 18.87 18.87 0 0 1 6.89 3 10.16 10.16 0 0 1 6-5.06 19.9 19.9 0 0 1 8-.76 2.84 2.84 0 0 1 2.35 1c.52.87 0 2-.48 2.85a4.39 4.39 0 0 1 4.17-2.72q-1.53 2.84-3.33 5.5c1.58-1.15 3.67-1.23 5.63-1.27a1.52 1.52 0 0 1 .87.17c.59.44.19 1.38-.29 1.94-2 2.35-4.82 4.18-5.9 7.08a38.5 38.5 0 0 0-1 4.66 2.29 2.29 0 0 1-.55 1.15 2.42 2.42 0 0 1-1.34.51c-3.21.52-7.44 1-9.93-1.5a43.73 43.73 0 0 0-9.53-7.64z" fill="#68e1fd" /><path d="M399.26 230.91a1.58 1.58 0 0 1-.81-.78c-.25-.77.73-1.36 1.52-1.5a8.57 8.57 0 0 1 5.36.84 40 40 0 0 1-7.63-7.47 18.87 18.87 0 0 1 6.89 3 10.16 10.16 0 0 1 6-5.06 19.9 19.9 0 0 1 8-.76 2.84 2.84 0 0 1 2.35 1c.52.87 0 2-.48 2.85a4.39 4.39 0 0 1 4.17-2.72q-1.53 2.84-3.33 5.5c1.58-1.15 3.67-1.23 5.63-1.27a1.52 1.52 0 0 1 .87.17c.59.44.19 1.38-.29 1.94-2 2.35-4.82 4.18-5.9 7.08a38.5 38.5 0 0 0-1 4.66 2.29 2.29 0 0 1-.55 1.15 2.42 2.42 0 0 1-1.34.51c-3.21.52-7.44 1-9.93-1.5a43.73 43.73 0 0 0-9.53-7.64z" transform="translate(-34.6 -1.99)" fill="url(#drink_coffee_r)" /><path fill="#dedee0" d="M267.33 313.25l119.65-2.75 3.86 29.77-140.6-1.1 17.09-25.92z" /><path opacity=".69" fill="url(#drink_coffee_s)" style="isolation:isolate" d="M265.12 311.32l119.66-2.75 3.86 29.77-140.61-1.1 17.09-25.92z" /><path fill="#68e1fd" d="M254.65 219.79l-.28-22.88 32.53-.28-7.44 63.41-19.57.28-6.62-21.51 1.38-19.02z" /><path fill="url(#drink_coffee_t)" d="M254.65 219.79l-.28-22.88 32.53-.28-7.44 63.41-19.57.28-6.62-21.51 1.38-19.02z" /><path d="M302.05 260.21q-38.24 30.48-78.55 58.2c-10.61 7.3-22.05 14.7-34.91 15.24-4 .17-8.14-.4-11.41-2.65-5.18-3.55-6.93-10.26-8.18-16.41-6.79-33.42-9.91-67.53-10.63-101.63-.16-7.69-.18-15.55 2.32-22.82s8-14 15.47-15.82c0 0 17.7-2.44 22.85 15.94s0 98.15 3.67 98.89S279.51 252 279.51 252c1.55 0 1.86-2.77 2.09-4.31a18.92 18.92 0 0 0-.15-4.63 41 41 0 0 1 6.47-26c1.54 2.25 1.47 5.2 1.34 7.92L289 231a3.08 3.08 0 0 0 .43 2.16 2.58 2.58 0 0 0 1.65.77c2.89.44 5.74-.81 8.45-1.93a120.18 120.18 0 0 1 17.56-5.76 3.43 3.43 0 0 1 2.83.15 2.68 2.68 0 0 1 .56 3.11c-.39 1.06-1.11 2-1.44 3.08a1.38 1.38 0 0 0 0 1c.26.52 1 .59 1.43.92a3 3 0 0 1 .85 2.42l.07 2.24c.15 4.72.21 9.79-2.4 13.74a15.49 15.49 0 0 1-8.06 5.75 37 37 0 0 1-8.88 1.56z" transform="translate(-34.6 -1.99)" fill="url(#drink_coffee_u)" /><path fill="#68e1fd" d="M252.63 198.38h36.2v-4.04l-2.75-.56-.55-4.04-30.52.37-1.1 4.04-1.47.74.19 3.49z" /><path opacity=".69" fill="url(#drink_coffee_v)" style="isolation:isolate" d="M252.28 198.59h36.21v-4.05l-2.76-.55-.55-4.04-30.51.36-1.1 4.05-1.47.73.18 3.5z" /><path fill="#68e1fd" d="M255.01 190.11l1.43-5.33 12.96 5.1-14.39.23z" /><path fill="url(#drink_coffee_w)" d="M255.01 190.11l1.43-5.33 12.96 5.1-14.39.23z" /><path fill="#dedee0" d="M166.97 351.85h314.85v10.48H166.97z" /><path fill="#68e1fd" d="M403.16 300.02l-128.04 3.01v3.12l128.04-3.01v-3.12z" /><path fill="url(#drink_coffee_x)" d="M403.16 300.02l-128.04 3.01v3.12l128.04-3.01v-3.12z" /><path fill="url(#drink_coffee_y)" d="M284.98 288.17l-44.39 3.85 11.58-8.82 37.95-3.21-5.14 8.18z" /></symbol><linearGradient id="drink_coffee_a" x1="293.86" y1="452.52" x2="144.98" y2="349.96" gradientUnits="userSpaceOnUse"><stop offset="0" stop-opacity="0" /><stop offset=".99" /></linearGradient><linearGradient id="drink_coffee_d" x1="456.28" y1="175.34" x2="465.37" y2="492.12" xlink:href="#drink_coffee_a"></linearGradient><linearGradient id="drink_coffee_e" x1="83.16" y1="395.13" x2="238.32" y2="395.13" xlink:href="#drink_coffee_a"></linearGradient><linearGradient id="drink_coffee_f" x1="235.79" y1="358.5" x2="192.01" y2="572.79" xlink:href="#drink_coffee_a"></linearGradient><linearGradient id="drink_coffee_g" x1="279.23" y1="106.22" x2="274.13" y2="116.42" xlink:href="#drink_coffee_a"></linearGradient><linearGradient id="drink_coffee_h" x1="273.73" y1="100.95" x2="277.45" y2="94.75" xlink:href="#drink_coffee_a"></linearGradient><linearGradient id="drink_coffee_i" x1="382.27" y1="278.15" x2="136.34" y2="329.8" xlink:href="#drink_coffee_a"></linearGradient><linearGradient id="drink_coffee_b" x1="226.2" y1="238.13" x2="385.84" y2="238.13" gradientUnits="userSpaceOnUse"><stop offset="0" stop-color="#ecc4d7" /><stop offset=".42" stop-color="#efd4d1" /><stop offset=".6" stop-color="#f0dcce" /><stop offset="1" stop-color="#f2eac9" /></linearGradient><linearGradient id="drink_coffee_j" x1="290.49" y1="271.09" x2="260.71" y2="370.9" xlink:href="#drink_coffee_a"></linearGradient><linearGradient id="drink_coffee_k" x1="189.31" y1="254.86" x2="13.41" y2="176.56" xlink:href="#drink_coffee_a"></linearGradient><linearGradient id="drink_coffee_l" x1="210.92" y1="155.92" x2="224.98" y2="168.05" gradientUnits="userSpaceOnUse"><stop offset="0" stop-color="#ecc4d7" /><stop offset=".42" stop-color="#efd4d1" /><stop offset="1" stop-color="#f2eac9" /></linearGradient><linearGradient id="drink_coffee_m" x1="216.8" y1="183.71" x2="227.27" y2="32.35" xlink:href="#drink_coffee_a"></linearGradient><linearGradient id="drink_coffee_n" x1="234.38" y1="123.6" x2="275.92" y2="133.16" xlink:href="#drink_coffee_b"></linearGradient><linearGradient id="drink_coffee_o" x1="216.09" y1="155.84" x2="176.38" y2="148.67" xlink:href="#drink_coffee_a"></linearGradient><linearGradient id="drink_coffee_c" x1="374.65" y1="206.68" x2="433.84" y2="253.73" gradientUnits="userSpaceOnUse"><stop offset=".02" stop-color="#fff" stop-opacity="0" /><stop offset=".58" stop-color="#fff" stop-opacity=".39" /><stop offset=".68" stop-color="#fff" stop-opacity=".68" /><stop offset="1" stop-color="#fff" /></linearGradient><linearGradient id="drink_coffee_p" x1="380.51" y1="209.14" x2="431.23" y2="249.46" xlink:href="#drink_coffee_c"></linearGradient><linearGradient id="drink_coffee_q" x1="424.46" y1="250.03" x2="412.42" y2="251.98" xlink:href="#drink_coffee_c"></linearGradient><linearGradient id="drink_coffee_r" x1="412.63" y1="225.76" x2="423.52" y2="257.47" xlink:href="#drink_coffee_a"></linearGradient><linearGradient id="drink_coffee_s" x1="248.03" y1="323.45" x2="388.64" y2="323.45" xlink:href="#drink_coffee_c"></linearGradient><linearGradient id="drink_coffee_t" x1="265.85" y1="227.72" x2="315.21" y2="232.66" xlink:href="#drink_coffee_a"></linearGradient><linearGradient id="drink_coffee_u" x1="158.31" y1="253.94" x2="321.44" y2="253.94" xlink:href="#drink_coffee_b"></linearGradient><linearGradient id="drink_coffee_v" x1="252.1" y1="194.27" x2="288.49" y2="194.27" xlink:href="#drink_coffee_c"></linearGradient><linearGradient id="drink_coffee_w" x1="262.06" y1="186.7" x2="262.65" y2="200.25" xlink:href="#drink_coffee_a"></linearGradient><linearGradient id="drink_coffee_x" x1="338.24" y1="290.96" x2="340.26" y2="318.16" xlink:href="#drink_coffee_a"></linearGradient><linearGradient id="drink_coffee_y" x1="265.83" y1="277.45" x2="250.67" y2="546.81" xlink:href="#drink_coffee_a"></linearGradient><symbol fill="#666" class="icon" viewBox="0 0 1024 1024" id="github"><defs><style></style></defs><path d="M0 520.886c0-69.368 13.51-135.697 40.498-199.02 26.987-63.323 63.322-117.826 109.006-163.51 45.65-45.65 100.154-81.985 163.51-109.006A502.289 502.289 0 0 1 512 8.92c69.335 0 135.663 13.477 198.986 40.497 63.356 26.988 117.86 63.323 163.51 109.007 45.684 45.65 82.02 100.154 109.006 163.51A502.289 502.289 0 0 1 1024 520.852c0 111.318-32.504 211.472-97.511 300.494-64.975 88.989-148.48 150.825-250.484 185.476-5.351 0-9.348-.99-11.99-2.973-2.676-1.982-4.196-3.997-4.526-6.012a59.458 59.458 0 0 1-.495-8.984 7.663 7.663 0 0 1-.991-3.006v-128.99c0-40.63-14.336-75.314-43.008-103.986 76.667-13.345 134.011-41.819 171.999-85.487 37.987-43.669 57.013-96.52 57.013-158.522 0-58.005-18.663-108.346-56.022-150.99 13.345-42.678 11-87.668-6.97-135.003-18.697-1.322-39.011 1.85-61.01 9.513-22 7.663-38.318 14.831-49.02 21.47-10.637 6.673-20.316 13.016-28.97 19.027-38.68-10.669-81.854-16.02-129.486-16.02-47.7 0-90.509 5.351-128.529 16.02-7.333-5.35-15.855-11.164-25.5-17.507-9.68-6.342-26.493-14.005-50.507-22.99-23.982-9.018-45.65-12.85-65.008-11.495-18.663 47.996-20.645 93.646-5.979 136.984-36.665 42.678-54.998 92.986-54.998 150.99 0 62.002 18.663 114.689 55.99 157.994 37.326 43.339 94.67 72.01 171.998 86.016a142.303 142.303 0 0 0-39.969 70.029c-56.683 13.972-96.355 3.963-119.015-30.06-42.017-61.308-79.674-83.307-113.003-65.965-4.69 4.657-3.997 9.48 1.982 14.501 6.012 4.988 14.996 11.66 27.02 19.985 11.99 8.357 20.976 17.507 26.987 27.515.661 1.322 2.51 6.177 5.517 14.502a831.917 831.917 0 0 0 8.985 23.981c2.973 7.663 8.654 16.186 17.011 25.5 8.324 9.349 18.003 17.178 29.003 23.52 11 6.309 26.161 11 45.485 14.006 19.324 2.972 41.323 3.138 65.998.495v100.484c0 .991-.165 2.643-.495 5.021-.33 2.312-.991 3.964-1.982 4.955-.991 1.024-2.345 2.015-4.03 3.039a12.52 12.52 0 0 1-6.474 1.486c-2.676 0-6.012-.33-10.009-.99-101.343-35.345-183.825-97.182-247.51-185.51C31.842 731.037 0 631.577 0 520.92z" /></symbol><symbol fill="#666" class="icon" viewBox="0 0 1024 1024" id="linux"><defs><style></style></defs><path d="M756.172 486.501c-14.613-32.318-35.182-56.261-55.93-67.981-5.647-30.227-9.29-62.964-15.698-92.019-19.148-86.832-67.39-166.668-164.602-166.668-97.213 0-161.228 73.786-164.603 166.668 0 0-.112-.038-.115 0-3.27 37.847-14.324 67.94-24.306 99.715-16.716 13.128-32.605 33.916-44.528 60.284-56.304 124.522-64.505 236.939-41.01 252.357 9.64 6.325 29.25-4.816 52.307-27.427 4.129 43.47 15.713 68.049 29.597 91.734-19.064 12.155-30.66 27.063-30.66 40.426 0 28.85 54.005 39.571 120.628 39.571 46.034 0 86.04-5.121 106.372-17.804 20.332 12.682 60.337 17.804 106.373 17.804 66.619 0 120.627-10.723 120.627-39.57 0-13.224-11.352-27.958-30.058-40.042 11.954-21.521 23.39-50.313 29.332-87.325 20.86 19.357 38.35 28.492 47.282 22.633 23.497-15.417 15.295-127.834-41.008-252.356zM574.568 257.43c20.118 0 36.427 28.295 36.427 63.2 0 10.104-1.373 19.645-3.804 28.112-4.862-1.666-10.037-3.112-15.73-4.366 4.66-5.117 7.719-12.347 7.719-20.367 0-15.514-11.148-28.09-24.56-28.09s-24.56 12.577-24.56 28.09c0 5.617 1.558 10.845 4.014 15.234a407.406 407.406 0 0 0-14.524-.822c-.955-5.643-1.44-11.61-1.44-17.79-.001-34.904 16.34-63.201 36.458-63.201zm-109.28-.002c20.117 0 36.426 28.297 36.426 63.202 0 6.18-.516 12.15-1.47 17.792-4.96.194-9.764.466-14.5.82 2.455-4.389 3.94-9.616 3.94-15.233 0-15.514-11.078-28.663-24.49-28.663h-.083c-13.411 0-24.545 13.15-24.545 28.662v.001c0 8.019 3.13 15.247 7.788 20.364-5.707 1.255-10.93 2.704-15.801 4.375-2.434-8.468-3.748-18.015-3.748-28.123 0-34.905 16.365-63.197 36.482-63.197zm52.839 159.427c41.016 0 76.847-14.91 96.304-32.756-13.05 22.595-51.246 44.567-96.304 44.567-45.062 0-83.253-21.97-96.305-44.567 19.46 17.845 55.29 32.756 96.305 32.756zm-95.182 4.25c21.874 18.42 57.167 32.806 96.99 32.806 40.586 0 76.47-14.943 98.237-33.868 44.271 12.678 78.276 97.051 78.276 199.996 0 111.765-40.081 142.956-89.867 142.956H437.852c-49.786 0-89.866-31.19-89.866-142.956 0-100.356 32.318-183.084 74.959-198.933zm63.222 449.508c-13.022 2.745-25.325-.633-33.373-6.361-7.17 6.503-18.087 11.47-30.291 11.47-11.08 0-21.064-4.084-28.178-9.697-7.66 6.88-20.513 11.5-34.43 9.49-21.433-3.095-37.185-20.824-35.925-33.058.179-1.737.774-3.244 1.585-4.588 4.475 10.634 17.681 21.891 34.34 24.297 13.917 2.01 26.77-2.61 34.43-9.489 7.115 5.613 17.1 9.698 28.178 9.698 12.204 0 23.12-4.967 30.29-11.471 8.048 5.728 20.352 9.106 33.374 6.36 9.25-1.95 17.273-6.628 23.248-12.285.223 3.633 1.335 6.968 3.234 10.023-6.16 7.105-15.464 13.288-26.482 15.61zm245.678-39.42a11.166 11.166 0 0 1 1.41 3.963c1.823 12.133-13.084 30.974-34.343 35.457-13.022 2.745-25.325-.633-33.372-6.361-7.17 6.503-18.087 11.47-30.291 11.47-11.08 0-21.064-4.084-28.178-9.697-7.66 6.88-20.513 11.5-34.429 9.49-18.098-2.613-32.144-15.66-35.32-27.021.365-1.573.558-3.205.558-4.902 0-1.372-.123-2.76-.363-4.162.029-.067.055-.136.085-.202l1.35.024c4.995 10.21 17.752 20.613 33.69 22.914 13.916 2.01 26.77-2.61 34.43-9.489 7.114 5.613 17.099 9.698 28.178 9.698 11.543 0 21.93-4.447 29.09-10.432 1.335.25 2.67.493 4.007.75 7.957 4.6 18.974 7.015 30.567 4.572 16.254-3.428 28.743-15.271 32.931-26.071z" /></symbol><symbol fill="#666" class="icon" viewBox="0 0 1024 1024" id="mac"><defs><style></style></defs><path d="M849.124 704.896c-1.04 3.158-17.3 59.873-57.25 118.191-34.578 50.306-70.333 101.019-126.803 101.91-55.533.975-73.303-33.136-136.707-33.136-63.324 0-83.23 32.245-135.713 34.111-54.255 2.221-96.004-54.951-130.712-105.011-70.935-102.55-125.553-290.6-52.301-416.626 36.04-63.055 100.82-103.136 171.364-104.231 53.161-1.005 103.74 36.012 136.029 36.012 33.171 0 94.357-44.791 158.906-38.09 27.026 1.152 102.622 11.299 151.328 81.892-3.832 2.607-90.452 53.724-89.487 157.76 1.302 125.597 110.174 166.79 111.346 167.218M633.697 230.75c29.108-35.506 48.235-84.314 43.203-132.785-41.56 1.63-92.197 27.6-122.292 62.897-26.609 30.794-50.062 80.362-43.52 128.27 46.177 2.805 93.657-24.182 122.609-58.382" /></symbol><symbol viewBox="0 0 823.64 597" id="new_message"><defs></defs><path d="M131.3 125c-24.34 5.16-49.64 10.76-69.18 26.17-16.5 13-42.21 37-50 56.5-33 82.37 4.31 182.6 76.73 233.86 34.06 24.11 76.51 35.78 107.12 64.16 19.36 17.95 32.92 41.71 53.52 58.21 30.1 24.09 70.74 29.42 109.2 32 26.72 1.81 54.48 2.59 79.27-7.57 17.92-7.34 33.1-19.93 48-32.34l98.71-82.43c15.86-13.23 30.69-34.3 51.34-34.16 185.86 1.33 198.39-217.4-86.86-314.28-25.14-8.54-42.38-32.28-66-44.45-48.79-25.15-104.94-17-154.15.4-62.48 22.15-132.86 30.14-197.7 43.93z" fill="#ee7752" opacity=".18" style="isolation:isolate" /><path d="M779.07 477.86c7.78.13 17.8 2.07 19 9.75.65 4-1.64 7.89-4.12 11.12-15.51 20.27-41.21 30.52-66.57 33.27s-50.92-1.1-76.24-4.22q-54.89-6.78-110.2-9c-26.22-1.06-53.8-1.72-76.38-15.08-4.19-2.47-8.31-5.56-10.32-10-4-8.83 2.32-19.58 11-23.87s18.88-3.87 28.56-3.35c95.06 5.12 190.05 11.38 285.27 11.38z" fill="#000405" opacity=".05" style="isolation:isolate" /><path d="M779.4 126.4s-33.83 43.75-40.25 51.08c-11.71 13.32-19.26 30.79-19.26 30.79l-17 72.34-19-5.07-41.31-11S657.26 225 650.15 213c-9.48-16-1.28-26 .88-32.87 4-12.73-16.43-36-16.43-36L621.51 85.5l19.76-2.64 14.34 47.53 24.57 21.93 17.5.93s13.2 2.72 22.8-1.72c9.18-4.26 41.61-40.83 41.61-40.83l13.23 12zM617.33 200.59v260.56A24.86 24.86 0 0 1 592.46 486H202.77a24.86 24.86 0 0 1-24.86-24.86V200.59a24.86 24.86 0 0 1 24.83-24.87h389.72a24.86 24.86 0 0 1 24.87 24.87z" fill="#ee7752" /><path d="M610.59 183.67H184l3.46-2.65a6.12 6.12 0 0 1 .5-.39L390.88 25.07l6.41-4.91 206.47 158.28z" fill="#ee7752" /><path d="M617.33 200.59l-5.19 3.75-37.79 27.37L390.88 364.6 214.43 228.71l-36.52-28.12.47-4.83a24.67 24.67 0 0 1 6.18-12.09 23.32 23.32 0 0 1 2.88-2.65 6.12 6.12 0 0 1 .5-.39 24.7 24.7 0 0 1 14.83-4.91h389.69a24.89 24.89 0 0 1 24.75 22.47q.12 1.2.12 2.4z" fill="#ee7752" /><path d="M187.44 181a24.92 24.92 0 0 0-2.88 2.65H184z" opacity=".61" fill="url(#new_message_d)" style="isolation:isolate" /><path d="M617.33 200.59l-5.19 3.76-37.79 27.36L390.88 364.6 214.43 228.72l-36.52-28.13.47-4.82a24.92 24.92 0 0 1 9.06-14.77l.5-.38L390.88 25.07l6.41-4.91 206.47 158.28a24.83 24.83 0 0 1 13.45 19.76 23.76 23.76 0 0 1 .12 2.39z" fill="url(#new_message_a)" /><path d="M574.35 181.34v50.38l-67.71 49L491.11 292l-100.23 72.6-94.27-72.6L282 280.76l-67.59-52v-47.42a14.77 14.77 0 0 1 14.77-14.77h330.41a14.78 14.78 0 0 1 14.76 14.77z" fill="#fff" /><path d="M524.73 225.51h-267a5.62 5.62 0 0 1-5.62-5.62 5.62 5.62 0 0 1 5.62-5.62h267a5.62 5.62 0 0 1 5.62 5.62 5.62 5.62 0 0 1-5.62 5.62z" fill="url(#new_message_e)" /><path d="M524.73 258.76h-267a5.62 5.62 0 0 1-5.62-5.62 5.62 5.62 0 0 1 5.62-5.62h267a5.62 5.62 0 0 1 5.62 5.62 5.62 5.62 0 0 1-5.62 5.62z" fill="url(#new_message_f)" /><path fill="url(#new_message_g)" d="M506.64 280.76L491.11 292h-194.5l-14.6-11.24h224.63z" /><path fill="#000405" opacity=".05" style="isolation:isolate" d="M390.88 364.6L228.02 486.02H557.1L390.88 364.6z" /><path d="M250.4 90.2c-8.2-17.59-39-14.7-39-14.7 19-11.21 15.36-39.68 15.13-41.36 8.31 24.82 37 19.34 39.57 18.8-19.05 4.7-15.7 37.26-15.7 37.26zM197 126.29c-5.21-11.18-24.8-9.34-24.8-9.34 12.4-7.37 9.59-26.34 9.59-26.34v.11c5.32 15.69 23.52 12.21 25.14 11.87-12.06 3-9.93 23.7-9.93 23.7z" fill="#ee7752" /><path d="M721.56 92.7a12.38 12.38 0 0 1 8.56-2.7 9 9 0 0 1 6.2 2.14 9.85 9.85 0 0 1 2.42 5.33 30.59 30.59 0 0 1 .55 7.46c-.22 4.59-1.41 9.45.57 13.6a9.58 9.58 0 0 0 1.88 2.66 5.24 5.24 0 0 0 3.48 1.73 2.79 2.79 0 0 0 2.86-2.24A10.62 10.62 0 0 1 734 126a11.06 11.06 0 0 1-2.32-1.43l1.74 3.53a19.92 19.92 0 0 1-4.16-1.58c-4.25-2.31-6.63-7-7.76-11.74-1-4.35-1.2-8.84-2.14-13.21-.69-3.33-.51-6.45 2.2-8.87z" fill="#3f3d56" /><path d="M720.28 97.5a6.89 6.89 0 0 1 2.54.39 4 4 0 0 1 2.45 3.35 3.77 3.77 0 0 1-2.08 3.57 6.42 6.42 0 0 1-2.7.47c-.84 0-1.69 0-2.53-.08a1.09 1.09 0 0 1-1.16-.84 14.94 14.94 0 0 1-1.23-3.43c-.69-3.68 1.79-3.46 4.71-3.43z" fill="#ee7752" /><path d="M704 132.61s-.16 2.89-.36 6.65c-.17 3.17-.38 7-.55 10.18a21.37 21.37 0 0 1-6.47 14.2c-2.26 2.31-7.65 6.62-11.76 5.09-2-.74-2.07-3.26-1.65-4.77a29.5 29.5 0 0 0 1.53-8.53 29.92 29.92 0 0 0-.63-7C681.54 142 704 132.61 704 132.61z" fill="url(#new_message_b)" /><path d="M704 132.61s-.16 2.89-.36 6.65c-1.58 3.52-3.06 6.39-3.87 7.82-1.63 2.89-8.33 7.44-15 8.35a29.92 29.92 0 0 0-.63-7C681.54 142 704 132.61 704 132.61z" fill="url(#new_message_h)" /><path d="M684.44 94.32a21.49 21.49 0 0 0-20.15 22.75c0 .51.08 1 .15 1.52a72.68 72.68 0 0 0 6.62 25.22c7 12 24.74 2.13 27.55-2.81s13.59-27.22 9.06-33.53c-3.12-4.26-11.77-13.61-23.23-13.15z" fill="url(#new_message_i)" /><path d="M678.14 82.13a37.24 37.24 0 0 1 22.94.67c7.27 2.76 13.54 8.44 16.31 15.71a28.61 28.61 0 0 1-.64 20.7 40.44 40.44 0 0 1-13 16.43c-1.47-4.5 3.06-8.5 4.82-12.89a3.61 3.61 0 0 0 .25-2.62c-.64-1.63-3.08-1.81-4.47-.75s-2 2.85-2.51 4.52c1.35-7.15 2.35-15.55-2.71-20.79-3-3.1-7.53-4.26-11.85-4.3a29 29 0 0 0-21.19 9.11c-1.59 1.71-3.85 3.81-5.87 2.63a4 4 0 0 1-1.42-1.73c-5.97-11.82 9.71-24.05 19.34-26.69z" fill="#3f3d56" /><path d="M687.8 95.34c-5-2.2-10.25-4-15.68-4s-11.06 1.84-14.65 5.92a20.56 20.56 0 0 0-4 7.77 14.08 14.08 0 0 0-.7 5.54 23.89 23.89 0 0 0 1 4c.94 3.24 1.34 7-.71 9.72a4.39 4.39 0 0 1-3.34 1.86 2.72 2.72 0 0 1-2.74-2.33c-.88 2.49.56 5.41 2.85 6.72a9.38 9.38 0 0 0 7.67.37 8.24 8.24 0 0 0 2.83-1.55 9.71 9.71 0 0 0 2-2.75c2.09-3.79 3.14-8 4.7-12.09s3.82-8 7.51-10.3a19.37 19.37 0 0 1 9.54-2.37c3.31-.11 6.64.16 9.94-.14s.91-2.26-.51-3.29a31.76 31.76 0 0 0-5.71-3.08z" fill="#3f3d56" /><path d="M822.11 59.49c.85.66-7.11 6.86-7.11 6.86s-3.72 6.41-7.5 8.19-32.18 48.15-32.18 48.15l-11.21-10.16L788.29 80s8-15.33 7.11-22c0 0 .48-7.88 2.89-4.22 1.7 2.61.61 6.72 2.62 7.16a1.1 1.1 0 0 0 .64-.14 22.53 22.53 0 0 0 4.55-3.64c4-3.81 8.78-9.11 8.78-9.11s2.62-1.11 2.29 0-5.14 8.6-5.41 9c.45-.41 7.83-7 9-6.49s-5.72 8.1-6.12 8.54c.43-.3 8.3-5.78 8.89-5.29 1.11.93-6 7.1-6.59 7.57.45-.24 4.36-2.53 5.17-1.89z" fill="url(#new_message_j)" /><path d="M813.67 64.24a4 4 0 0 1-1.85.15 51.07 51.07 0 0 0-6.06-.1c-1.36.06-4.17 1-4.24-1.11 0-.56.14-1.11.11-1.67a4.45 4.45 0 0 0-.1-.72 22.53 22.53 0 0 0 4.55-3.64 6.63 6.63 0 0 1 1.72.87l3.94 2.55c.7.46 1.4.92 2.07 1.42a1.81 1.81 0 0 1 .68.77 1.3 1.3 0 0 1-.82 1.48z" fill="url(#new_message_k)" /><path d="M618.4 7.42c-1.08.12 2.42 9.58 2.42 9.58s-.22 7.41 2 10.91 2 57.15 2 57.15l14.88-2-3.38-40.41s1.29-17.24 5.56-22.43c0 0 3.74-6.95-.23-5.11-2.82 1.32-4.07 5.38-6 4.7a1 1 0 0 1-.47-.46 21.9 21.9 0 0 1-2-5.49c-1.41-5.35-2.65-12.37-2.65-12.37s-1.6-2.3-1.86-1.19-.17 10-.16 10.51c-.17-.57-3-10.09-4.25-10.26s.59 9.9.71 10.48c-.22-.48-4-9.28-4.78-9.18-1.43.21 1.41 9.23 1.62 9.9-.28-.44-2.39-4.43-3.41-4.33z" fill="url(#new_message_l)" /><path d="M623 15.91a4 4 0 0 0 1.53 1.09 52.6 52.6 0 0 1 5.2 3.12c1.13.77 3 3.07 4.19 1.29.32-.46.47-1 .79-1.47a6.47 6.47 0 0 1 .47-.57 21.9 21.9 0 0 1-2-5.49 6.54 6.54 0 0 0-1.92-.16l-4.69.09a19.32 19.32 0 0 0-2.52.11 1.78 1.78 0 0 0-1 .3 1.29 1.29 0 0 0-.05 1.69z" fill="url(#new_message_m)" /><path d="M565.67 479.21c-4 8.17-6.91 14.52-6.91 14.52l-50.33 2.4s8.34-22.07 21.91-16.37c4.59 1.92 21.22-1.69 21.22-1.69l.52-1.67z" fill="url(#new_message_c)" /><path d="M744.05 481.68l-7.71 4.32-66-69.38-7.28-92.62-60.18 54.59s1.61 37.59-19.43 67c-3.77 5.27-11.44 20.58-17.24 32.54-.18.37-.36.75-.53 1.12l-1.13-.23-3.93-.82-8.53-1.76 27.66-111.8 62.85-100.06 41.31 11 19 5.07s12.82 25.69 0 92.18l-8.5 38.06s34.26 18.27 44.82 54.41l4.77 16.36z" fill="#3f3d56" /><path d="M744.05 481.68l7.83 8.19L732 510.59h-26s5.54-9.15 16.62-10.6 13.73-14 13.73-14z" fill="url(#new_message_n)" /><path d="M215.81 74.06l-4.39 1.44c19-11.21 15.36-39.68 15.13-41.36.3 1.35 4.72 20.14 2.31 26.31-3.01 7.71-13.05 13.61-13.05 13.61zM184.41 108.44c-2.32 3.21-11.54 8.16-12.17 8.49 12.4-7.37 9.59-26.34 9.59-26.34v.11c.49 1.3 4.84 14.6 2.58 17.74zM178.65 214.27l203.67 156.71 8.56-6.38-212.97-164.01.74 13.68zM397.62 369.97l219.71-158.14v-10.79l-226.45 164 6.74 4.93zM617.21 198.64l-.6 1.68-4.47 4.47c3.14-5.42-5.73-18-5.73-18l-3.54-2.65-10.63-8L390.88 25.52l6.41-4.91 206.47 158.27a24.86 24.86 0 0 1 13.45 19.76z" fill="#fff" opacity=".22" style="isolation:isolate" /><path d="M779.4 126.4s-33.83 43.75-40.25 51.08c-11.71 13.32-19.26 30.79-19.26 30.79l-17 72.34-19-5.07s17.74-66.33 24.87-80.41 66.54-72.44 66.54-72.44z" fill="url(#new_message_o)" /><path d="M744 481.66c-.35-1-11.64-32.36-28.59-45.51-17.21-13.36-27.21-31.8-27.21-31.8-4-35.4-4.33-128.81-4.33-128.81l19 5.07s12.82 25.69 0 92.18l-8.5 38.06s34.26 18.31 44.82 54.45zM602.88 378.57s1.61 37.59-19.43 67c-3.77 5.27-11.44 20.58-17.24 32.54l-1.66.89-3.93-.82 32.62-102.89S632.75 328.48 640 324s23.08 0 23.08 0z" fill="#25233a" /></symbol><linearGradient id="new_message_d" x1="184.46" y1="411.38" x2="188.29" y2="421.79" gradientTransform="matrix(1 0 0 -1 -.33 598)" gradientUnits="userSpaceOnUse"><stop offset=".36" stop-color="#00272e" /><stop offset=".75" stop-color="#3f80a1" stop-opacity=".25" /><stop offset="1" stop-color="#69b9eb" stop-opacity="0" /></linearGradient><linearGradient id="new_message_a" x1="444.69" y1="31.61" x2="323.69" y2="461.61" gradientUnits="userSpaceOnUse"><stop offset="0" stop-opacity="0" /><stop offset=".91" stop-opacity=".8" /><stop offset="1" /></linearGradient><linearGradient id="new_message_e" x1="405.84" y1="149.83" x2="332.84" y2="499.83" xlink:href="#new_message_a"></linearGradient><linearGradient id="new_message_f" x1="412.49" y1="151.21" x2="339.49" y2="501.21" xlink:href="#new_message_a"></linearGradient><linearGradient id="new_message_g" x1="420.97" y1="152.99" x2="347.97" y2="502.99" xlink:href="#new_message_a"></linearGradient><linearGradient id="new_message_b" x1="683.34" y1="447.17" x2="704.34" y2="447.17" gradientTransform="matrix(1 0 0 -1 -.33 598)" gradientUnits="userSpaceOnUse"><stop offset="0" stop-color="#ecc4d7" /><stop offset=".42" stop-color="#efd4d1" /><stop offset="1" stop-color="#f2eac9" /></linearGradient><linearGradient id="new_message_h" x1="694.49" y1="458.85" x2="690.16" y2="410.3" xlink:href="#new_message_b"></linearGradient><linearGradient id="new_message_i" x1="664.58" y1="476.09" x2="709.1" y2="476.09" xlink:href="#new_message_b"></linearGradient><linearGradient id="new_message_j" x1="764.44" y1="512.88" x2="823.98" y2="512.88" xlink:href="#new_message_b"></linearGradient><linearGradient id="new_message_k" x1="810.28" y1="519.93" x2="804.26" y2="566.67" xlink:href="#new_message_b"></linearGradient><linearGradient id="new_message_l" x1="619.54" y1="589.29" x2="679.08" y2="589.29" gradientTransform="rotate(-148.06 561.609 320.172)" xlink:href="#new_message_b"></linearGradient><linearGradient id="new_message_m" x1="665.61" y1="596.46" x2="659.59" y2="643.2" gradientTransform="rotate(-148.06 561.609 320.172)" xlink:href="#new_message_b"></linearGradient><linearGradient id="new_message_c" x1="533.17" y1="127.89" x2="540.88" y2="95.77" gradientTransform="matrix(1 0 0 -1 -.33 598)" gradientUnits="userSpaceOnUse"><stop offset="0" stop-color="#68e1fd" /><stop offset=".01" stop-color="#67ddf9" /><stop offset=".12" stop-color="#5cb3ce" /><stop offset=".24" stop-color="#538ea9" /><stop offset=".37" stop-color="#4c718b" /><stop offset=".5" stop-color="#465a73" /><stop offset=".63" stop-color="#424a63" /><stop offset=".79" stop-color="#404059" /><stop offset=".99" stop-color="#3f3d56" /></linearGradient><linearGradient id="new_message_n" x1="723.22" y1="106.25" x2="736.07" y2="88.27" xlink:href="#new_message_c"></linearGradient><linearGradient id="new_message_o" x1="691.29" y1="111.67" x2="834.32" y2="428.15" xlink:href="#new_message_a"></linearGradient><symbol viewBox="0 0 686.2 592.16" id="notes"><defs></defs><path d="M192.67 23.07c25.33 6.47 48.89 20.71 75.16 20.62 25.43-.08 48.16-13.53 71.53-22.8C373.58 7.31 411.1 2.34 448.28.54 478.93-.95 511-.09 538.28 13s46.82 37.72 57.89 64.38 14.31 55.52 15.56 84.05c1 24.14.75 48.56 6.55 72.12 8 32.53 27.17 61.58 42.53 91.77 12.29 24.14 22.37 49.73 24.84 76.35s-3.24 54.56-20.08 76.26C640.37 510.42 595 523.88 552 527.35c-24.11 1.94-49 1.5-71.56 9.56-15.21 5.42-28.57 14.45-43.11 21.26-29 13.59-62 18.09-94.45 19.66a577.93 577.93 0 0 1-241.69-40.34c-11.42-4.58-22.86-9.65-32.07-17.4-10.27-8.62-17.2-20.09-22.61-31.92a172.3 172.3 0 0 1-2.64-136.62c13.34-32.32 37-63.43 33.14-97.84-5.79-51.26-57-96.61-35.47-150.86C64.32 45.56 126.1 6.08 192.67 23.07z" fill="#68e1fd" opacity=".18" style="isolation:isolate" /><path d="M165.57 569.49c-4.56 1.29-9.74 3.14-11.33 7.6-1.45 4.09 1 8.76 4.65 11.14s8.11 3 12.44 3.34c13 1.06 26 .48 39-.09l80.41-3.57c15.73-.69 32.41-1.7 45.32-10.72 2-1.39 4-3.45 3.57-5.82-.35-1.78-2-3-3.59-3.84-14-7.8-31.13-6.33-47.16-7.5-21.15-1.55-42.06-8.21-63.38-7.33-20.25.79-40.4 11.24-59.93 16.79z" opacity=".52" fill="url(#notes_a)" style="isolation:isolate" /><path d="M0 115.93l4.1-1.81h188v134.1s0 21.45-15.56 30.14C170.18 281.93 0 115.93 0 115.93z" fill="#68e1fd" /><path d="M189.27 115.93v139.29a27.45 27.45 0 0 1-27.45 27.44H0V115.93z" fill="#68e1fd" /><path d="M189.27 115.93v139.29a27.45 27.45 0 0 1-27.45 27.44H0V115.93z" fill="url(#notes_c)" /><path d="M189.27 255.22a27.45 27.45 0 0 1-27.45 27.44h-4.33c9.59-3.09 8.35-20.1 8.35-20.1 17.94 3.09 23.43-7.34 23.43-7.34zM250.45 156.13h189.26v166.73H250.45z" fill="#68e1fd" /><path fill="url(#notes_d)" d="M250.45 156.13h189.26v166.73H250.45z" /><path fill="#68e1fd" d="M464.85 88.72h189.26v166.73H464.85z" /><path fill="url(#notes_e)" d="M464.85 88.72h189.26v166.73H464.85z" /><path d="M120.47 91.24l-26.81 61.48c0-.63 0-1.26-.06-1.88-1.5.56-2.52-1.13-3-2.67-.82-2.44-1.85-5.42-4.21-5.25-1.23.09-2.42 1.08-3.51 2a8.44 8.44 0 0 1-3.47 2.29 1.92 1.92 0 0 1-2.3-1.45 1.84 1.84 0 0 1 0-.74l-2.51 1.65c-2.41 1.57-1.26-2.07-1.81-3.28a11 11 0 0 0-3.94 2.48L97.1 81zM313.55 169.27c.57-.25 1.13-.53 1.69-.83-1.13-1.14 0-2.75 1.19-3.86 1.89-1.74 4.18-3.9 3.06-6-.59-1.09-2-1.78-3.31-2.37a8.35 8.35 0 0 1-3.5-2.22 1.91 1.91 0 0 1 1-3c-.85-.53-1.69-1.07-2.53-1.61-2.43-1.55 1.37-2 2.24-3a10.9 10.9 0 0 0-3.87-2.59l65.56-.75a5.31 5.31 0 0 0-1 2.79c0 1.09 1.69 1.85 2.19 2.68.06.11.11.22.16.33l.27 1.27a4.63 4.63 0 0 1-.84 2.4 12.18 12.18 0 0 0-1.84 3.28 6.27 6.27 0 0 0 .81 4.19c1 2 2.54 3.86 4.68 4.45h.2l.84 4zM525.51 85.21c.63 0 1.26.07 1.89.07-.45-1.53 1.3-2.42 2.88-2.82 2.49-.63 5.54-1.44 5.55-3.8 0-1.24-.9-2.5-1.79-3.66a8.45 8.45 0 0 1-2-3.62 1.91 1.91 0 0 1 1.58-2.19 1.94 1.94 0 0 1 .76 0l-1.46-2.63c-1.39-2.52 2.16-1.1 3.41-1.56a11 11 0 0 0-2.17-4.12l57.94 30.61a5.41 5.41 0 0 0-2.19 2c-.52 1 .62 2.43.65 3.4a1.15 1.15 0 0 1 0 .37l-.34 1.23a5 5 0 0 1-1.89 1.72 11.46 11.46 0 0 0-3.18 2 6.27 6.27 0 0 0-1.29 4.07c-.07 2.22.39 4.61 2 6.15a.65.65 0 0 0 .16.13l-1.19 3.93z" fill="#68e1fd" opacity=".34" style="isolation:isolate" /><path d="M120.47 91.24l-26.81 61.48c0-.63 0-1.26-.06-1.88-1.5.56-2.52-1.13-3-2.67-.82-2.44-1.85-5.42-4.21-5.25-1.23.09-2.42 1.08-3.51 2a8.44 8.44 0 0 1-3.47 2.29 1.92 1.92 0 0 1-2.3-1.45 1.84 1.84 0 0 1 0-.74l-2.51 1.65c-2.41 1.57-1.26-2.07-1.81-3.28a11 11 0 0 0-3.94 2.48L97.1 81zM313.55 169.27c.57-.25 1.13-.53 1.69-.83-1.13-1.14 0-2.75 1.19-3.86 1.89-1.74 4.18-3.9 3.06-6-.59-1.09-2-1.78-3.31-2.37a8.35 8.35 0 0 1-3.5-2.22 1.91 1.91 0 0 1 1-3c-.85-.53-1.69-1.07-2.53-1.61-2.43-1.55 1.37-2 2.24-3a10.9 10.9 0 0 0-3.87-2.59l65.56-.75a5.31 5.31 0 0 0-1 2.79c0 1.09 1.69 1.85 2.19 2.68.06.11.11.22.16.33l.27 1.27a4.63 4.63 0 0 1-.84 2.4 12.18 12.18 0 0 0-1.84 3.28 6.27 6.27 0 0 0 .81 4.19c1 2 2.54 3.86 4.68 4.45h.2l.84 4zM525.51 85.21c.63 0 1.26.07 1.89.07-.45-1.53 1.3-2.42 2.88-2.82 2.49-.63 5.54-1.44 5.55-3.8 0-1.24-.9-2.5-1.79-3.66a8.45 8.45 0 0 1-2-3.62 1.91 1.91 0 0 1 1.58-2.19 1.94 1.94 0 0 1 .76 0l-1.46-2.63c-1.39-2.52 2.16-1.1 3.41-1.56a11 11 0 0 0-2.17-4.12l57.94 30.61a5.41 5.41 0 0 0-2.19 2c-.52 1 .62 2.43.65 3.4a1.15 1.15 0 0 1 0 .37l-.34 1.23a5 5 0 0 1-1.89 1.72 11.46 11.46 0 0 0-3.18 2 6.27 6.27 0 0 0-1.29 4.07c-.07 2.22.39 4.61 2 6.15a.65.65 0 0 0 .16.13l-1.19 3.93z" fill="#fff" opacity=".34" style="isolation:isolate" /><path fill="url(#notes_f)" d="M495 154.43h128.96v3.41H495z" /><path fill="url(#notes_g)" d="M495 180.02h128.96v3.41H495z" /><path fill="url(#notes_h)" d="M495 205.62h128.96v3.41H495z" /><path fill="url(#notes_i)" d="M47.28 171.99h94.7v3.41h-94.7z" /><path fill="url(#notes_j)" d="M47.28 197.59h94.7V201h-94.7z" /><path fill="url(#notes_k)" d="M47.28 223.19h94.7v3.41h-94.7z" /><path fill="url(#notes_l)" d="M296.21 199.3h94.7v3.41h-94.7z" /><path fill="url(#notes_m)" d="M296.21 224.9h94.7v3.41h-94.7z" /><path fill="url(#notes_n)" d="M296.21 250.49h94.7v3.41h-94.7z" /><path d="M189.27 296s34.06-59.35 46-78.13l7.66-9.28 7.51 12.77.17 10.28-31.42 59.21s-22.46 20.54-29.92 5.15z" fill="#68e1fd" /><path fill="url(#notes_o)" d="M250.95 210.16l-37.45 76.09 26.79-34.05 10.35-20.52.31-21.52z" /><path d="M294.93 205.61a10.23 10.23 0 0 1 1.93 6.79c4.56-3.74 4.63-11.6 9.82-14.41a25.6 25.6 0 0 1-1.57 8.83c1.65-3.4 3.68-7.15 7.31-8.23a24 24 0 0 1-4.13 10.77l4.73-4.78c.42-.43 1-.9 1.57-.61s.42 1.28.11 1.94l-5.22 11.16a28.48 28.48 0 0 1 5.35-3.4l-5.73 9.44a16.17 16.17 0 0 1-2.38 3.31c-2.13 2.14-5.52 3.39-6.25 6.32.16-.63-8.24-3.31-8.83-4.22-1-1.57.84-4.87 1.05-6.75.6-5.28-.84-11.38 2.24-16.16z" fill="url(#notes_b)" /><path d="M244.87 397.35l11.54 84.06a22.48 22.48 0 0 1-1.08 10.51l-12.81 59.18-19.86-2.1 9.09-60.47a8.55 8.55 0 0 0-.23-3.73l-15.66-54-3 61.16-25.67 52-18-7.2L192.05 490l-3.67-57.76c-3.25-20.1 2.69-34.94 2.69-34.94z" fill="#3f3d56" /><path fill="#68e1fd" d="M191.03 388.4h53.84v8.95h-53.84z" /><path fill="url(#notes_p)" d="M191.03 388.4h53.84v8.95h-53.84z" /><path d="M304 234.6l-50.65 83.66-2.64 62.79c0 6-.24 11-4.7 12.37a9.29 9.29 0 0 1-2.67.35h-44.81A12.82 12.82 0 0 1 185.71 381v-57.72s-3.3-32.71 12.22-32.71H229a24.5 24.5 0 0 0 19.27-9.33l41.46-54.63z" fill="#68e1fd" /><path fill="url(#notes_q)" d="M210.98 251.37h15.54v39.51h-15.54z" /><path d="M211 247.05v43.84h8.2v-2.67a5.92 5.92 0 0 1 5.92-5.92h.47a14.72 14.72 0 0 0 14.72-14.72v-20.53z" fill="url(#notes_r)" /><path d="M246.38 208.71c.31-.65.54-1.33.88-2a14.09 14.09 0 0 1 2.6-3.21l3.24-3.3a1.57 1.57 0 0 1 .88-.56c.67-.08 1.14.74 1 1.4a4.23 4.23 0 0 1-1 1.68 15 15 0 0 0-3 7.41 63.94 63.94 0 0 0-.37 8.07 4.94 4.94 0 0 1-.52 2.56 73.32 73.32 0 0 0-3.38-6.53c-.43-.72-1.74-2.13-1.78-2.94s1.17-1.87 1.45-2.58z" fill="url(#notes_s)" /><path d="M241.71 240.15a11 11 0 0 0-5.07-7.4V235c-5.81-2.81-12.76-.6-19.13-1.65a9 9 0 0 1 1.76 2.64 26.87 26.87 0 0 0-12 2.83l1 1.46a1.11 1.11 0 0 1 .23.52c0 .39-.37.65-.68.89-1.8 1.37-2 4-1.9 6.26.33 6.84 2.1 13.51 3.86 20.13.67 2.51 1.33 5 2 7.53l1.4-1.93 1.33.93c1.82-2.82 9.76-3.41 10.48-6.69-2-.46-4.39-3.17-4.17-5.22s.88-2.51 2.83-1.85c1.36.45-.87-2.33-1.11-3.46s-.75-2.28-.19-3.25c.77-1.35 2.78-1 4.22-.44a8.77 8.77 0 0 1 8.74-5.86c2 .15 3.93 1.36 5.25-.54s1.54-4.95 1.15-7.15z" fill="#3f3d56" /><path d="M304 234.6l-50.65 83.66-2.64 62.79c0 6 .11 11.82-6.18 12.72h-8.43s7.12-71.8 5.81-78.76 58.6-82.28 58.6-82.28z" fill="url(#notes_t)" /><path d="M226 549.32l-3.47 15h45s.47-7.42-8.81-10a36.22 36.22 0 0 0-17.16-.47l-1.19-3zM172.87 538.21l-7.92 12 9.28 5.41 2.93-1.54 6.65 6.8 23.35.77s-1.54-11.68-12.37-11.71-9.87-6.9-9.87-6.9z" fill="#3f3d56" /></symbol><linearGradient id="notes_a" x1="281.13" y1="689.93" x2="110.5" y2="984.73" gradientTransform="translate(0 -174)" gradientUnits="userSpaceOnUse"><stop offset="0" stop-opacity="0" /><stop offset=".98" /></linearGradient><linearGradient id="notes_c" x1="161.43" y1="246.95" x2="195.9" y2="-190.69" gradientTransform="matrix(1 0 0 -1 -68.9 419.49)" xlink:href="#notes_a"></linearGradient><linearGradient id="notes_d" x1="349.2" y1="192.54" x2="239.88" y2="-126.91" gradientTransform="matrix(1 0 0 -1 0 420)" xlink:href="#notes_a"></linearGradient><linearGradient id="notes_e" x1="541.48" y1="293.55" x2="700.76" y2="-110.27" gradientTransform="matrix(1 0 0 -1 0 420)" xlink:href="#notes_a"></linearGradient><linearGradient id="notes_f" x1="554.44" y1="347.42" x2="580.42" y2="-83.06" gradientTransform="matrix(1 0 0 -1 0 420)" xlink:href="#notes_a"></linearGradient><linearGradient id="notes_g" x1="552.9" y1="347.33" x2="578.88" y2="-83.15" gradientTransform="matrix(1 0 0 -1 0 420)" xlink:href="#notes_a"></linearGradient><linearGradient id="notes_h" x1="551.36" y1="347.23" x2="577.34" y2="-83.24" gradientTransform="matrix(1 0 0 -1 0 420)" xlink:href="#notes_a"></linearGradient><linearGradient id="notes_i" x1="90.22" y1="319.41" x2="116.2" y2="-111.07" gradientTransform="matrix(1 0 0 -1 0 420)" xlink:href="#notes_a"></linearGradient><linearGradient id="notes_j" x1="88.68" y1="319.31" x2="114.66" y2="-111.17" gradientTransform="matrix(1 0 0 -1 0 420)" xlink:href="#notes_a"></linearGradient><linearGradient id="notes_k" x1="87.14" y1="319.22" x2="113.12" y2="-111.26" gradientTransform="matrix(1 0 0 -1 0 420)" xlink:href="#notes_a"></linearGradient><linearGradient id="notes_l" x1="336.61" y1="334.28" x2="362.58" y2="-96.2" gradientTransform="matrix(1 0 0 -1 0 420)" xlink:href="#notes_a"></linearGradient><linearGradient id="notes_m" x1="335.07" y1="334.18" x2="361.04" y2="-96.3" gradientTransform="matrix(1 0 0 -1 0 420)" xlink:href="#notes_a"></linearGradient><linearGradient id="notes_n" x1="333.53" y1="334.09" x2="359.5" y2="-96.39" gradientTransform="matrix(1 0 0 -1 0 420)" xlink:href="#notes_a"></linearGradient><linearGradient id="notes_o" x1="222.53" y1="358.48" x2="259.98" y2="309.49" gradientTransform="matrix(1 0 0 -1 0 594)" xlink:href="#notes_a"></linearGradient><linearGradient id="notes_b" x1="360.24" y1="204.13" x2="383.88" y2="204.13" gradientTransform="matrix(1 0 0 -1 -68.9 419.49)" gradientUnits="userSpaceOnUse"><stop offset="0" stop-color="#ecc4d7" /><stop offset=".42" stop-color="#efd4d1" /><stop offset="1" stop-color="#f2eac9" /></linearGradient><linearGradient id="notes_p" x1="286.95" y1="52.36" x2="286.64" y2="-28.59" gradientTransform="matrix(1 0 0 -1 -68.9 419.49)" xlink:href="#notes_a"></linearGradient><linearGradient id="notes_q" x1="5249.59" y1="148.28" x2="5275.1" y2="148.75" gradientTransform="rotate(180 2736.565 209.745)" xlink:href="#notes_b"></linearGradient><linearGradient id="notes_r" x1="5251.07" y1="152.41" x2="5245.81" y2="149.63" gradientTransform="rotate(180 2736.57 209.745)" xlink:href="#notes_b"></linearGradient><linearGradient id="notes_s" x1="313.79" y1="209.29" x2="323.92" y2="209.29" xlink:href="#notes_b"></linearGradient><linearGradient id="notes_t" x1="298.57" y1="143.44" x2="417.37" y2="31.24" gradientTransform="matrix(1 0 0 -1 -68.9 419.49)" xlink:href="#notes_a"></linearGradient><symbol fill="#666" class="icon" viewBox="0 0 1024 1024" id="twitter"><defs><style></style></defs><path d="M1024 512C1024 229.236 794.764 0 512 0S0 229.236 0 512s229.236 512 512 512 512-229.236 512-512zM236.311 693.946a215.57 215.57 0 0 0 26.997 1.722c53.015.093 101.795-19.037 140.474-51.153-49.525-1.164-91.276-36.166-105.658-84.2 6.888 1.442 14.01 2.28 21.27 2.326 10.334.047 20.295-1.35 29.79-4.049-51.759-11.45-90.764-60.556-90.764-119.063v-1.536c15.267 9.216 32.675 14.801 51.247 15.639-30.301-21.923-50.27-59.16-50.27-101.05 0-22.156 5.586-42.822 15.314-60.51 55.808 73.775 139.171 122.741 233.146 128.839-1.954-8.798-2.932-17.967-2.932-27.323 0-66.14 50.642-118.923 113.106-117.9 32.535.56 61.952 15.5 82.571 38.96 25.786-4.935 49.99-14.43 71.82-27.695-8.425 27.601-26.391 50.595-49.757 64.977 22.9-2.56 44.683-8.61 64.977-17.78-15.174 23.598-34.35 44.218-56.46 60.695.233 5.12.326 10.24.326 15.36 0 157.044-113.803 338.153-321.861 338.06-63.814.046-123.3-19.968-173.336-54.319z" /></symbol><symbol fill="#666" class="icon" viewBox="0 0 1024 1024" id="windows"><defs><style></style></defs><path d="M180.533 507.367c158.679-65.355 235.486-30.474 304.27 16.219l-79.44 273.045c-69.02-46.432-144.084-84.636-303.398-18.777l77.644-270.088.924-.399zM526.4 549.988c68.99 46.398 139.539 80.44 301.656 24.985l-75.66 263.244c-159.142 65.832-235.542 28.585-304.44-18.13L526.4 549.989zm-28.377-75.624c-41.513-27.97-86.199-54.114-149.668-54.582-41.865-.323-91.71 11.588-155.012 37.731l78.411-271.752c159.2-65.822 235.701-28.52 304.673 18.129l-78.404 270.474zm424.01-224.367c-158.987 65.7-235.394 28.754-304.214-17.613L539.391 504.37c68.767 46.628 151.876 84.897 304.316 16.685l78.327-271.058z" /></symbol></defs><use id="developing_code-usage" xlink:href="#developing_code" class="sprite-symbol-usage" /><use id="drink_coffee-usage" xlink:href="#drink_coffee" class="sprite-symbol-usage" /><use id="github-usage" xlink:href="#github" class="sprite-symbol-usage" /><use id="linux-usage" xlink:href="#linux" class="sprite-symbol-usage" /><use id="mac-usage" xlink:href="#mac" class="sprite-symbol-usage" /><use id="new_message-usage" xlink:href="#new_message" class="sprite-symbol-usage" /><use id="notes-usage" xlink:href="#notes" class="sprite-symbol-usage" /><use id="twitter-usage" xlink:href="#twitter" class="sprite-symbol-usage" /><use id="windows-usage" xlink:href="#windows" class="sprite-symbol-usage" /></svg>