<svg xmlns="http://www.w3.org/2000/svg" xmlns:xlink="http://www.w3.org/1999/xlink"><defs><style>
    .sprite-symbol-usage {display: none;}
    .sprite-symbol-usage:target {display: inline;}
  </style><symbol class="icon" viewBox="0 0 1024 1024" id="align_center"><defs><style></style></defs><path d="M281.6 204.8h460.8q25.6 0 25.6 25.6T742.4 256H281.6q-25.6 0-25.6-25.6t25.6-25.6zM281.6 614.4h460.8q25.6 0 25.6 25.6t-25.6 25.6H281.6q-25.6 0-25.6-25.6t25.6-25.6zM128 819.2h768q25.6 0 25.6 25.6T896 870.4H128q-25.6 0-25.6-25.6t25.6-25.6zM179.2 409.6h665.6q25.6 0 25.6 25.6t-25.6 25.6H179.2q-25.6 0-25.6-25.6t25.6-25.6z" /></symbol><symbol class="icon" viewBox="0 0 1024 1024" id="align_left"><defs><style></style></defs><path d="M128 204.8h460.8q25.6 0 25.6 25.6T588.8 256H128q-25.6 0-25.6-25.6t25.6-25.6zM128 614.4h460.8q25.6 0 25.6 25.6t-25.6 25.6H128q-25.6 0-25.6-25.6t25.6-25.6zM128 819.2h768q25.6 0 25.6 25.6T896 870.4H128q-25.6 0-25.6-25.6t25.6-25.6zM128 409.6h665.6q25.6 0 25.6 25.6t-25.6 25.6H128q-25.6 0-25.6-25.6t25.6-25.6z" /></symbol><symbol class="icon" viewBox="0 0 1024 1024" id="align_right"><defs><style></style></defs><path d="M435.20000000000005 204.8H896q25.6 0 25.6 25.6T896 256H435.2q-25.6 0-25.6-25.6t25.6-25.6zM435.20000000000005 614.4H896q25.6 0 25.6 25.6T896 665.6H435.2q-25.6 0-25.6-25.6t25.6-25.6zM128 819.2h768q25.6 0 25.6 25.6T896 870.4H128q-25.6 0-25.6-25.6t25.6-25.6zM230.4 409.6H896q25.6 0 25.6 25.6T896 460.8H230.4q-25.6 0-25.6-25.6t25.6-25.6z" /></symbol><symbol class="icon" viewBox="0 0 1024 1024" id="bullet_list"><defs><style></style></defs><path d="M307.2 512h512v51.2h-512zm0 307.2h614.4v51.2H307.2zm0-614.4h614.4V256H307.2zm-204.8-51.2h102.4V256H102.4zm0 307.2h102.4v102.4H102.4zm0 307.2h102.4v102.4H102.4z" /></symbol><symbol class="icon" viewBox="0 0 1024 1024" id="code"><defs><style></style></defs><path d="M212.94 217.549h45.927v41.933h-37.273c-29.287 0-43.93 15.974-43.93 49.254v138.445c0 39.936-18.637 67.225-54.58 81.203 35.943 14.643 54.58 41.933 54.58 81.203v139.11c0 31.95 14.643 48.59 43.93 48.59h37.273v41.932h-45.926c-27.29 0-48.589-8.653-63.232-25.958-14.643-15.975-21.3-37.94-21.3-65.895V611.584c0-19.968-4.659-34.611-12.646-43.93-9.318-10.65-26.624-16.64-50.585-17.305v-43.93c23.961-1.331 41.267-6.656 50.585-17.305 7.987-9.319 12.647-23.962 12.647-43.93V310.067c0-27.955 6.656-50.585 21.299-66.56 14.643-17.305 35.942-25.958 63.232-25.958zm517.172 0h45.926c26.624 0 47.924 8.653 63.232 25.958 13.978 15.975 21.3 38.605 21.3 66.56v135.117c0 19.968 3.993 34.611 12.646 44.595 9.318 9.984 25.958 15.309 50.586 16.64v43.93c-24.628.665-41.268 6.656-50.586 17.305-8.653 9.319-12.646 23.962-12.646 43.93v135.782c0 27.956-7.322 49.92-21.3 65.895-15.308 17.305-36.608 25.958-63.232 25.958h-45.926v-41.933h37.274c29.286 0 43.93-16.64 43.93-48.588v-139.11c0-39.271 17.97-66.56 54.578-81.204-36.608-13.978-54.579-41.267-54.579-81.203V308.736c0-33.28-14.643-49.254-43.93-49.254h-37.273v-41.933zM307.2 512a51.2 51.2 0 1 0 102.4 0 51.2 51.2 0 1 0-102.4 0zM460.8 512a51.2 51.2 0 1 0 102.4 0 51.2 51.2 0 1 0-102.4 0zM614.4 512a51.2 51.2 0 1 0 102.4 0 51.2 51.2 0 1 0-102.4 0z" /></symbol><symbol class="icon" viewBox="0 0 1024 1024" id="delete"><defs><style></style></defs><path d="M837.018 256H186.982l-26.06 102.4h702.105L837.017 256zM324.25 204.8l22.528-67.38a51.2 51.2 0 0 1 48.486-35.02h233.37a51.2 51.2 0 0 1 48.588 35.02l22.528 67.38h157.184a25.6 25.6 0 0 1 24.781 19.302l39.066 153.6A25.6 25.6 0 0 1 896 409.6h-30.618l-45.721 465.818a51.2 51.2 0 0 1-50.995 46.182h-517.12a51.2 51.2 0 0 1-50.996-46.592L158.26 409.6H128a25.6 25.6 0 0 1-24.832-31.898l39.066-153.6a25.6 25.6 0 0 1 24.883-19.302H324.3zm53.964 0h267.572l-17.101-51.2h-233.37l-17.1 51.2zm435.712 204.8H209.664l41.882 460.8h517.12l45.26-460.8zM409.6 460.8h51.2v358.4h-51.2V460.8zm153.6 0h51.2v358.4h-51.2V460.8z" /></symbol><symbol class="icon" viewBox="0 0 1024 1024" id="front_matter"><defs><style></style></defs><path d="M753.357 921.6h-51.2v-51.2h51.2v51.2zm-102.4 0h-51.2v-51.2h51.2v51.2zm-102.4 0h-51.2v-51.2h51.2v51.2zm-102.45 0h-51.2v-51.2h51.2v51.2zm-102.4 0h-51.2v-51.2h51.2v51.2zm-151.553-13.926l21.453-46.49c10.24 4.71 21.197 7.629 32.614 8.755l-4.812 50.586-49.204-12.851zm611.687 8.396l-11.828-48.486c11.162-2.714 21.658-7.22 31.181-13.414l28.058 43.52-47.411 18.432zm-685.056-77.414l46.028-23.86c5.274 10.138 12.135 19.354 20.48 27.29l-35.328 36.967-31.18-40.448zm767.641 22.528l-38.144-29.696c7.22-9.267 12.698-19.354 16.384-30.003l46.336 16.025c.512.154 1.178.512 1.997 1.024l-24.166 43.93a11.008 11.008 0 0 1-2.407-1.28zM104.5 797.082a202.189 202.189 0 0 1-2.1-29.133v-29.235h51.2v29.235c0 5.017.359 9.83 1.025 14.643l-50.125 14.49zm817.1-29.133h-51.2V716.8h51.2v51.149zm-768-80.435h-51.2v-51.2h51.2v51.2zm768-21.914h-51.2v-51.2h51.2v51.2zm-768-80.486h-51.2v-51.2h51.2v51.2zm768-21.914h-51.2V512h51.2v51.2zm-768-80.486h-51.2v-51.2h51.2v51.2zm768-21.914h-51.2v-51.2h51.2v51.2zM460.8 204.8h256V256h-256zm-153.6 0h102.4V256H307.2z" /><path d="M153.6 307.2h716.8V256A102.4 102.4 0 0 0 768 153.6H256A102.4 102.4 0 0 0 153.6 256v51.2zM256 102.4h512A153.6 153.6 0 0 1 921.6 256v102.4H102.4V256A153.6 153.6 0 0 1 256 102.4z" /></symbol><symbol class="icon" viewBox="0 0 1024 1024" id="github"><defs><style></style></defs><path d="M0 520.886c0-69.368 13.51-135.697 40.498-199.02 26.987-63.323 63.322-117.826 109.006-163.51 45.65-45.65 100.154-81.985 163.51-109.006A502.289 502.289 0 0 1 512 8.92c69.335 0 135.663 13.477 198.986 40.497 63.356 26.988 117.86 63.323 163.51 109.007 45.684 45.65 82.02 100.154 109.006 163.51A502.289 502.289 0 0 1 1024 520.852c0 111.318-32.504 211.472-97.511 300.494-64.975 88.989-148.48 150.825-250.484 185.476-5.351 0-9.348-.99-11.99-2.973-2.676-1.982-4.196-3.997-4.526-6.012a59.458 59.458 0 0 1-.495-8.984 7.663 7.663 0 0 1-.991-3.006v-128.99c0-40.63-14.336-75.314-43.008-103.986 76.667-13.345 134.011-41.819 171.999-85.487 37.987-43.669 57.013-96.52 57.013-158.522 0-58.005-18.663-108.346-56.022-150.99 13.345-42.678 11-87.668-6.97-135.003-18.697-1.322-39.011 1.85-61.01 9.513-22 7.663-38.318 14.831-49.02 21.47-10.637 6.673-20.316 13.016-28.97 19.027-38.68-10.669-81.854-16.02-129.486-16.02-47.7 0-90.509 5.351-128.529 16.02-7.333-5.35-15.855-11.164-25.5-17.507-9.68-6.342-26.493-14.005-50.507-22.99-23.982-9.018-45.65-12.85-65.008-11.495-18.663 47.996-20.645 93.646-5.979 136.984-36.665 42.678-54.998 92.986-54.998 150.99 0 62.002 18.663 114.689 55.99 157.994 37.326 43.339 94.67 72.01 171.998 86.016a142.303 142.303 0 0 0-39.969 70.029c-56.683 13.972-96.355 3.963-119.015-30.06-42.017-61.308-79.674-83.307-113.003-65.965-4.69 4.657-3.997 9.48 1.982 14.501 6.012 4.988 14.996 11.66 27.02 19.985 11.99 8.357 20.976 17.507 26.987 27.515.661 1.322 2.51 6.177 5.517 14.502a831.917 831.917 0 0 0 8.985 23.981c2.973 7.663 8.654 16.186 17.011 25.5 8.324 9.349 18.003 17.178 29.003 23.52 11 6.309 26.161 11 45.485 14.006 19.324 2.972 41.323 3.138 65.998.495v100.484c0 .991-.165 2.643-.495 5.021-.33 2.312-.991 3.964-1.982 4.955-.991 1.024-2.345 2.015-4.03 3.039a12.52 12.52 0 0 1-6.474 1.486c-2.676 0-6.012-.33-10.009-.99-101.343-35.345-183.825-97.182-247.51-185.51C31.842 731.037 0 631.577 0 520.92z" /></symbol><symbol class="icon" viewBox="0 0 1024 1024" id="header_1"><defs><style></style></defs><path d="M832.512 453.632h32.768V819.2h-41.984V504.832c-23.04 23.552-51.712 39.936-86.016 50.176v-41.984c16.384-4.608 33.792-11.776 51.2-22.016 17.408-11.264 31.744-23.552 44.032-37.376zM51.2 153.6h51.2v306.944h461.26V153.6h50.74v665.6h-50.74V512.717H102.4V819.2H51.2z" /></symbol><symbol class="icon" viewBox="0 0 1024 1024" id="header_2"><defs><style></style></defs><path d="M822.272 446.464c33.792 0 61.44 9.728 83.456 29.184 21.504 19.456 32.768 45.568 32.768 77.312s-12.288 60.416-35.84 86.016c-12.8 13.312-37.888 33.28-75.776 58.88-46.592 31.232-73.216 59.392-79.872 83.968h192V819.2H695.296c0-33.28 11.776-63.488 36.352-90.624 14.336-16.384 40.448-38.4 79.36-65.024 28.672-20.48 47.616-35.328 57.344-45.568 18.432-19.968 28.16-41.984 28.16-65.536 0-22.528-6.656-39.424-19.968-51.712s-32.256-18.432-55.808-18.432c-25.088 0-44.544 8.192-57.856 25.6-14.336 16.384-22.016 40.96-22.528 73.216h-41.984c0-40.96 11.776-73.728 34.304-97.792 22.528-24.576 52.736-36.864 89.6-36.864zM51.2 153.6h51.2v306.944h461.26V153.6h50.74v665.6h-50.74V512.717H102.4V819.2H51.2z" /></symbol><symbol class="icon" viewBox="0 0 1024 1024" id="header_3"><defs><style></style></defs><path d="M820.736 446.464c34.816 0 63.488 8.704 84.992 26.624 20.992 17.92 31.744 41.984 31.744 72.704 0 40.96-19.968 68.608-59.904 81.92 21.504 6.656 37.888 16.896 49.152 31.232 12.288 14.336 18.432 32.256 18.432 53.76 0 33.28-11.776 60.416-34.816 81.408-23.552 21.504-54.272 32.256-92.16 32.256-34.816 0-62.976-9.216-84.992-26.624-26.112-21.504-40.448-52.736-43.52-93.696h42.496c1.024 28.672 10.752 50.688 28.672 65.536 15.36 12.288 34.304 18.944 57.344 18.944 26.112 0 47.104-7.68 62.976-22.528 14.336-14.336 22.016-32.256 22.016-53.76 0-22.016-7.168-38.912-21.504-51.2-14.336-12.288-33.792-17.92-59.392-17.92h-29.696v-32.768h28.16c24.576 0 43.008-5.632 55.808-16.384 12.8-11.264 19.456-27.136 19.456-47.616s-6.656-36.352-18.944-47.616c-13.312-12.288-32.256-17.92-55.808-17.92-24.576 0-43.52 6.144-57.344 19.456-14.336 13.312-22.528 32.256-25.088 56.832h-41.472c3.072-35.328 16.384-62.976 38.912-82.944 21.504-19.968 49.664-29.696 84.48-29.696zM51.2 153.6h51.2v306.944h461.26V153.6h50.74v665.6h-50.74V512.717H102.4V819.2H51.2z" /></symbol><symbol class="icon" viewBox="0 0 1024 1024" id="header_4"><defs><style></style></defs><path d="M834.867 692.429V530.176L720.077 692.48h114.79zm.717 126.771v-87.5h-156.98v-44.033l163.994-227.481h37.99v232.243h52.737v39.27H880.64V819.2h-45.005zM51.2 153.6h51.2v306.944h461.26V153.6h50.74v665.6h-50.74V512.717H102.4V819.2H51.2z" /></symbol><symbol class="icon" viewBox="0 0 1024 1024" id="header_5"><defs><style></style></defs><path d="M728.832 727.962c3.02 25.65 14.95 43.417 35.789 53.248 10.65 4.966 22.989 7.475 36.966 7.475 26.675 0 46.439-8.5 59.239-25.498 12.85-16.998 19.25-35.84 19.25-56.473 0-25.037-7.577-44.34-22.834-58.01a79.36 79.36 0 0 0-54.887-20.48c-15.513 0-28.774 2.97-39.885 8.96-11.059 6.042-20.53 14.336-28.364 25.037l-39.015-2.253L722.33 467.2h186.01v43.52H756.121l-15.258 99.482c8.294-6.35 16.23-11.11 23.757-14.234 13.312-5.53 28.723-8.243 46.233-8.243 32.82 0 60.672 10.547 83.456 31.744 22.887 21.145 34.304 47.974 34.304 80.486 0 33.792-10.496 63.642-31.385 89.498-20.941 25.856-54.272 38.758-100.147 38.758a127.488 127.488 0 0 1-77.312-24.627c-22.477-16.384-35.021-41.626-37.684-75.622h46.746zM51.2 153.6h51.2v306.944h461.26V153.6h50.74v665.6h-50.74V512.717H102.4V819.2H51.2z" /></symbol><symbol class="icon" viewBox="0 0 1024 1024" id="header_6"><defs><style></style></defs><path d="M815.36 459.725c39.987 0 67.84 10.342 83.61 31.078 15.77 20.787 23.654 42.138 23.654 64.154H878.08c-2.662-14.183-6.912-25.242-12.749-33.28-10.803-15.002-27.238-22.477-49.254-22.477-25.14 0-45.159 11.622-59.955 34.867-14.848 23.245-23.092 56.525-24.781 99.84a97.792 97.792 0 0 1 39.014-33.945c14.336-6.656 30.31-10.036 47.975-10.036a116.736 116.736 0 0 1 78.54 28.775c22.324 19.149 33.485 47.77 33.485 85.76a130.048 130.048 0 0 1-31.744 86.374c-21.197 25.088-51.353 37.632-90.521 37.632-33.485 0-62.413-12.749-86.733-38.144-24.32-25.395-36.506-68.198-36.506-128.358 0-44.544 5.427-82.279 16.23-113.255 20.839-59.392 58.932-88.985 114.279-88.985zm-3.277 328.704c23.706 0 41.37-7.936 53.146-23.86 11.776-15.871 17.613-34.713 17.613-56.37 0-18.33-5.223-35.79-15.719-52.378-10.547-16.589-29.593-24.883-57.293-24.883-19.302 0-36.25 6.45-50.841 19.25-14.592 12.8-21.914 32.154-21.914 58.01 0 22.682 6.656 41.728 19.917 57.14 13.21 15.36 31.59 23.09 55.091 23.09zM51.2 153.6h51.2v306.944h461.26V153.6h50.74v665.6h-50.74V512.717H102.4V819.2H51.2z" /></symbol><symbol class="icon" viewBox="0 0 1024 1024" id="horizontal_line"><defs><style></style></defs><path d="M204.8 512h102.4v51.2H204.8zm256 0h102.4v51.2H460.8zm256 0h102.4v51.2H716.8zM153.6 819.2h716.8v51.2H153.6zm0-614.4h716.8V256H153.6z" /></symbol><symbol class="icon" viewBox="0 0 1024 1024" id="html"><defs><style></style></defs><path d="M561.92 153.6h58.163L452.25 870.4h-59.034l168.653-716.8zM334.336 740.864l-36.198 36.198L24.064 502.938l274.074-274.074 36.198 36.198L96.461 502.938l237.875 237.926zm355.328 0l237.875-237.926-237.875-237.876 36.198-36.198 274.074 274.074-274.074 274.124-36.198-36.198z" /></symbol><symbol class="icon" viewBox="0 0 1024 1024" id="linux"><defs><style></style></defs><path d="M756.172 486.501c-14.613-32.318-35.182-56.261-55.93-67.981-5.647-30.227-9.29-62.964-15.698-92.019-19.148-86.832-67.39-166.668-164.602-166.668-97.213 0-161.228 73.786-164.603 166.668 0 0-.112-.038-.115 0-3.27 37.847-14.324 67.94-24.306 99.715-16.716 13.128-32.605 33.916-44.528 60.284-56.304 124.522-64.505 236.939-41.01 252.357 9.64 6.325 29.25-4.816 52.307-27.427 4.129 43.47 15.713 68.049 29.597 91.734-19.064 12.155-30.66 27.063-30.66 40.426 0 28.85 54.005 39.571 120.628 39.571 46.034 0 86.04-5.121 106.372-17.804 20.332 12.682 60.337 17.804 106.373 17.804 66.619 0 120.627-10.723 120.627-39.57 0-13.224-11.352-27.958-30.058-40.042 11.954-21.521 23.39-50.313 29.332-87.325 20.86 19.357 38.35 28.492 47.282 22.633 23.497-15.417 15.295-127.834-41.008-252.356zM574.568 257.43c20.118 0 36.427 28.295 36.427 63.2 0 10.104-1.373 19.645-3.804 28.112-4.862-1.666-10.037-3.112-15.73-4.366 4.66-5.117 7.719-12.347 7.719-20.367 0-15.514-11.148-28.09-24.56-28.09s-24.56 12.577-24.56 28.09c0 5.617 1.558 10.845 4.014 15.234a407.406 407.406 0 0 0-14.524-.822c-.955-5.643-1.44-11.61-1.44-17.79-.001-34.904 16.34-63.201 36.458-63.201zm-109.28-.002c20.117 0 36.426 28.297 36.426 63.202 0 6.18-.516 12.15-1.47 17.792-4.96.194-9.764.466-14.5.82 2.455-4.389 3.94-9.616 3.94-15.233 0-15.514-11.078-28.663-24.49-28.663h-.083c-13.411 0-24.545 13.15-24.545 28.662v.001c0 8.019 3.13 15.247 7.788 20.364-5.707 1.255-10.93 2.704-15.801 4.375-2.434-8.468-3.748-18.015-3.748-28.123 0-34.905 16.365-63.197 36.482-63.197zm52.839 159.427c41.016 0 76.847-14.91 96.304-32.756-13.05 22.595-51.246 44.567-96.304 44.567-45.062 0-83.253-21.97-96.305-44.567 19.46 17.845 55.29 32.756 96.305 32.756zm-95.182 4.25c21.874 18.42 57.167 32.806 96.99 32.806 40.586 0 76.47-14.943 98.237-33.868 44.271 12.678 78.276 97.051 78.276 199.996 0 111.765-40.081 142.956-89.867 142.956H437.852c-49.786 0-89.866-31.19-89.866-142.956 0-100.356 32.318-183.084 74.959-198.933zm63.222 449.508c-13.022 2.745-25.325-.633-33.373-6.361-7.17 6.503-18.087 11.47-30.291 11.47-11.08 0-21.064-4.084-28.178-9.697-7.66 6.88-20.513 11.5-34.43 9.49-21.433-3.095-37.185-20.824-35.925-33.058.179-1.737.774-3.244 1.585-4.588 4.475 10.634 17.681 21.891 34.34 24.297 13.917 2.01 26.77-2.61 34.43-9.489 7.115 5.613 17.1 9.698 28.178 9.698 12.204 0 23.12-4.967 30.29-11.471 8.048 5.728 20.352 9.106 33.374 6.36 9.25-1.95 17.273-6.628 23.248-12.285.223 3.633 1.335 6.968 3.234 10.023-6.16 7.105-15.464 13.288-26.482 15.61zm245.678-39.42a11.166 11.166 0 0 1 1.41 3.963c1.823 12.133-13.084 30.974-34.343 35.457-13.022 2.745-25.325-.633-33.372-6.361-7.17 6.503-18.087 11.47-30.291 11.47-11.08 0-21.064-4.084-28.178-9.697-7.66 6.88-20.513 11.5-34.429 9.49-18.098-2.613-32.144-15.66-35.32-27.021.365-1.573.558-3.205.558-4.902 0-1.372-.123-2.76-.363-4.162.029-.067.055-.136.085-.202l1.35.024c4.995 10.21 17.752 20.613 33.69 22.914 13.916 2.01 26.77-2.61 34.43-9.489 7.114 5.613 17.099 9.698 28.178 9.698 11.543 0 21.93-4.447 29.09-10.432 1.335.25 2.67.493 4.007.75 7.957 4.6 18.974 7.015 30.567 4.572 16.254-3.428 28.743-15.271 32.931-26.071z" /></symbol><symbol class="icon" viewBox="0 0 1024 1024" id="mac"><defs><style></style></defs><path d="M849.124 704.896c-1.04 3.158-17.3 59.873-57.25 118.191-34.578 50.306-70.333 101.019-126.803 101.91-55.533.975-73.303-33.136-136.707-33.136-63.324 0-83.23 32.245-135.713 34.111-54.255 2.221-96.004-54.951-130.712-105.011-70.935-102.55-125.553-290.6-52.301-416.626 36.04-63.055 100.82-103.136 171.364-104.231 53.161-1.005 103.74 36.012 136.029 36.012 33.171 0 94.357-44.791 158.906-38.09 27.026 1.152 102.622 11.299 151.328 81.892-3.832 2.607-90.452 53.724-89.487 157.76 1.302 125.597 110.174 166.79 111.346 167.218M633.697 230.75c29.108-35.506 48.235-84.314 43.203-132.785-41.56 1.63-92.197 27.6-122.292 62.897-26.609 30.794-50.062 80.362-43.52 128.27 46.177 2.805 93.657-24.182 122.609-58.382" /></symbol><symbol class="icon" viewBox="0 0 1024 1024" id="math"><defs><style></style></defs><path d="M434.176 488.346L244.685 254.259H436.89s67.584-5.273 92.006 28.928c24.371 34.202 32.46 86.784 32.46 86.784h24.372l-10.803-160.41H112.077v23.655l238.182 284.058-238.182 270.848v26.316h473.6l29.85-178.841-24.372-5.274s-8.14 39.424-40.601 76.288c-32.512 36.864-159.744 31.54-159.744 31.54H220.314l213.862-249.857zm311.91 24.37l-7.936-20.326-9.42-23.296-12.237-26.47c-8.704-18.995-16.999-28.518-24.986-28.518-12.083 0-21.606 11.008-28.57 32.972-5.12-1.843-7.68-4.454-7.68-7.936 0-10.24 6.145-22.016 18.33-35.174 12.288-13.21 23.245-19.814 32.922-19.814 18.944 0 38.656 26.624 59.085 79.77l5.222 13.106 5.837-9.164c36.25-55.808 66.765-83.712 91.545-83.712 6.452 0 14.03 1.792 22.733 5.427l-30.873 31.488a37.786 37.786 0 0 0-8.704-1.741c-18.688 0-41.012 20.89-66.868 62.669l-7.372 12.083 5.836 15.206c22.324 59.956 40.704 89.959 55.296 89.959 13.312 0 23.501-9.267 30.464-27.75 4.762 2.969 7.168 5.99 7.168 9.164 0 8.243-6.81 18.176-20.428 29.696-13.568 11.571-25.293 17.408-35.175 17.408-19.712 0-39.885-27.033-60.416-81.05l-7.168-18.329-7.373 12.646c-34.713 57.856-67.84 86.733-99.481 86.733-11.879 0-22.016-2.918-30.31-8.601l29.542-28.11c5.12 4.967 11.059 7.425 17.869 7.425 19.2 0 40.806-18.893 64.768-56.679l13.26-20.838 5.12-8.192z" /></symbol><symbol class="icon" viewBox="0 0 1024 1024" id="new_table"><defs><style></style></defs><path d="M153.6 256a51.2 51.2 0 0 0-51.2 51.2V768a51.2 51.2 0 0 0 51.2 51.2h716.8a51.2 51.2 0 0 0 51.2-51.2V307.2a51.2 51.2 0 0 0-51.2-51.2H153.6zm0-51.2h716.8a102.4 102.4 0 0 1 102.4 102.4V768a102.4 102.4 0 0 1-102.4 102.4H153.6A102.4 102.4 0 0 1 51.2 768V307.2a102.4 102.4 0 0 1 102.4-102.4z" /><path d="M51.2 358.4h921.6V256a102.4 102.4 0 0 0-102.4-102.4H153.6A102.4 102.4 0 0 0 51.2 256v102.4zm51.2 204.8h819.2v51.2H102.4z" /><path d="M486.4 844.8V230.4h51.2v614.4z" /></symbol><symbol class="icon" viewBox="0 0 1024 1024" id="order_list"><defs><style></style></defs><path d="M307.2 512h512v51.2h-512zm0 307.2h614.4v51.2H307.2zm0-614.4h614.4V256H307.2zm-182.784-51.2H140.8v182.784h-20.992V179.2A97.792 97.792 0 0 1 76.8 204.288v-20.992c8.192-2.304 16.896-5.888 25.6-11.008 8.704-5.632 15.872-11.776 22.016-18.688zm6.144 274.432c16.896 0 30.72 4.864 41.728 14.592 10.752 9.728 16.384 22.784 16.384 38.656s-6.144 30.208-17.92 43.008c-6.4 6.656-18.944 16.64-37.888 29.44-23.296 15.616-36.608 29.696-39.936 41.984h96V614.4H67.072c0-16.64 5.888-31.744 18.176-45.312 7.168-8.192 20.224-19.2 39.68-32.512 14.336-10.24 23.808-17.664 28.672-22.784 9.216-9.984 14.08-20.992 14.08-32.768 0-11.264-3.328-19.712-9.984-25.856s-16.128-9.216-27.904-9.216c-12.544 0-22.272 4.096-28.928 12.8-7.168 8.192-11.008 20.48-11.264 36.608H68.608c0-20.48 5.888-36.864 17.152-48.896 11.264-12.288 26.368-18.432 44.8-18.432zm-.768 307.2c17.408 0 31.744 4.352 42.496 13.312 10.496 8.96 15.872 20.992 15.872 36.352 0 20.48-9.984 34.304-29.952 40.96a48.128 48.128 0 0 1 24.576 15.616c6.144 7.168 9.216 16.128 9.216 26.88 0 16.64-5.888 30.208-17.408 40.704-11.776 10.752-27.136 16.128-46.08 16.128-17.408 0-31.488-4.608-42.496-13.312-13.056-10.752-20.224-26.368-21.76-46.848h21.248c.512 14.336 5.376 25.344 14.336 32.768 7.68 6.144 17.152 9.472 28.672 9.472 13.056 0 23.552-3.84 31.488-11.264a36.66 36.66 0 0 0 11.008-26.88c0-11.008-3.584-19.456-10.752-25.6-7.168-6.144-16.896-8.96-29.696-8.96h-14.848v-16.384h14.08c12.288 0 21.504-2.816 27.904-8.192a30.106 30.106 0 0 0 9.728-23.808c0-10.24-3.328-18.176-9.472-23.808-6.656-6.144-16.128-8.96-27.904-8.96-12.288 0-21.76 3.072-28.672 9.728-7.168 6.656-11.264 16.128-12.544 28.416H68.096c1.536-17.664 8.192-31.488 19.456-41.472 10.752-9.984 24.832-14.848 42.24-14.848z" /></symbol><symbol class="icon" viewBox="0 0 1024 1024" id="paragraph"><defs><style></style></defs><path d="M409.6 512v51.2H307.2c-110.848 0-204.8-91.648-204.8-204.8s93.952-204.8 204.8-204.8h614.4v51.2H307.2c-81.92 0-152.32 68.762-153.6 153.6 1.28 84.838 71.68 153.6 153.6 153.6h102.4z" /><path d="M358.4 153.6h51.2v716.8h-51.2zm256 0h51.2v716.8h-51.2z" /></symbol><symbol class="icon" viewBox="0 0 1024 1024" id="quote"><defs><style></style></defs><path d="M307.2 512h512v51.2h-512V512zm0 307.2h614.4v51.2H307.2v-51.2zm0-614.4h614.4V256H307.2v-51.2zm-153.6-51.2h51.2v768h-51.2v-768z" /></symbol><symbol class="icon" viewBox="0 0 1024 1024" id="table"><defs><style></style></defs><path d="M512 819.2V716.8H153.6v-51.2H512V563.2H153.6V512H512V409.6h51.2V512h358.4v51.2H563.2v102.4h358.4v51.2H563.2v102.4h307.2a51.2 51.2 0 0 0 51.2-51.2V409.6h-768V768a51.2 51.2 0 0 0 51.2 51.2H512zM204.8 153.6h665.6A102.4 102.4 0 0 1 972.8 256v512a102.4 102.4 0 0 1-102.4 102.4H204.8A102.4 102.4 0 0 1 102.4 768V256a102.4 102.4 0 0 1 102.4-102.4zm-51.2 204.8h768V256a51.2 51.2 0 0 0-51.2-51.2H204.8a51.2 51.2 0 0 0-51.2 51.2v102.4z" /></symbol><symbol class="icon" viewBox="0 0 1024 1024" id="todolist"><defs><style></style></defs><path d="M256 204.8a51.2 51.2 0 0 0-51.2 51.2v512a51.2 51.2 0 0 0 51.2 51.2h512a51.2 51.2 0 0 0 51.2-51.2V256a51.2 51.2 0 0 0-51.2-51.2H256zm0-51.2h512A102.4 102.4 0 0 1 870.4 256v512A102.4 102.4 0 0 1 768 870.4H256A102.4 102.4 0 0 1 153.6 768V256A102.4 102.4 0 0 1 256 153.6z" /><path d="M698.368 341.197l37.888 34.406-296.448 326.195-144.896-173.414 39.322-32.768 107.11 128.256z" /></symbol><symbol class="icon" viewBox="0 0 1024 1024" id="twitter"><defs><style></style></defs><path d="M1024 512C1024 229.236 794.764 0 512 0S0 229.236 0 512s229.236 512 512 512 512-229.236 512-512zM236.311 693.946a215.57 215.57 0 0 0 26.997 1.722c53.015.093 101.795-19.037 140.474-51.153-49.525-1.164-91.276-36.166-105.658-84.2 6.888 1.442 14.01 2.28 21.27 2.326 10.334.047 20.295-1.35 29.79-4.049-51.759-11.45-90.764-60.556-90.764-119.063v-1.536c15.267 9.216 32.675 14.801 51.247 15.639-30.301-21.923-50.27-59.16-50.27-101.05 0-22.156 5.586-42.822 15.314-60.51 55.808 73.775 139.171 122.741 233.146 128.839-1.954-8.798-2.932-17.967-2.932-27.323 0-66.14 50.642-118.923 113.106-117.9 32.535.56 61.952 15.5 82.571 38.96 25.786-4.935 49.99-14.43 71.82-27.695-8.425 27.601-26.391 50.595-49.757 64.977 22.9-2.56 44.683-8.61 64.977-17.78-15.174 23.598-34.35 44.218-56.46 60.695.233 5.12.326 10.24.326 15.36 0 157.044-113.803 338.153-321.861 338.06-63.814.046-123.3-19.968-173.336-54.319z" /></symbol><symbol class="icon" viewBox="0 0 1024 1024" id="windows"><defs><style></style></defs><path d="M180.533 507.367c158.679-65.355 235.486-30.474 304.27 16.219l-79.44 273.045c-69.02-46.432-144.084-84.636-303.398-18.777l77.644-270.088.924-.399zM526.4 549.988c68.99 46.398 139.539 80.44 301.656 24.985l-75.66 263.244c-159.142 65.832-235.542 28.585-304.44-18.13L526.4 549.989zm-28.377-75.624c-41.513-27.97-86.199-54.114-149.668-54.582-41.865-.323-91.71 11.588-155.012 37.731l78.411-271.752c159.2-65.822 235.701-28.52 304.673 18.129l-78.404 270.474zm424.01-224.367c-158.987 65.7-235.394 28.754-304.214-17.613L539.391 504.37c68.767 46.628 151.876 84.897 304.316 16.685l78.327-271.058z" /></symbol></defs><use id="align_center-usage" xlink:href="#align_center" class="sprite-symbol-usage" /><use id="align_left-usage" xlink:href="#align_left" class="sprite-symbol-usage" /><use id="align_right-usage" xlink:href="#align_right" class="sprite-symbol-usage" /><use id="bullet_list-usage" xlink:href="#bullet_list" class="sprite-symbol-usage" /><use id="code-usage" xlink:href="#code" class="sprite-symbol-usage" /><use id="delete-usage" xlink:href="#delete" class="sprite-symbol-usage" /><use id="front_matter-usage" xlink:href="#front_matter" class="sprite-symbol-usage" /><use id="github-usage" xlink:href="#github" class="sprite-symbol-usage" /><use id="header_1-usage" xlink:href="#header_1" class="sprite-symbol-usage" /><use id="header_2-usage" xlink:href="#header_2" class="sprite-symbol-usage" /><use id="header_3-usage" xlink:href="#header_3" class="sprite-symbol-usage" /><use id="header_4-usage" xlink:href="#header_4" class="sprite-symbol-usage" /><use id="header_5-usage" xlink:href="#header_5" class="sprite-symbol-usage" /><use id="header_6-usage" xlink:href="#header_6" class="sprite-symbol-usage" /><use id="horizontal_line-usage" xlink:href="#horizontal_line" class="sprite-symbol-usage" /><use id="html-usage" xlink:href="#html" class="sprite-symbol-usage" /><use id="linux-usage" xlink:href="#linux" class="sprite-symbol-usage" /><use id="mac-usage" xlink:href="#mac" class="sprite-symbol-usage" /><use id="math-usage" xlink:href="#math" class="sprite-symbol-usage" /><use id="new_table-usage" xlink:href="#new_table" class="sprite-symbol-usage" /><use id="order_list-usage" xlink:href="#order_list" class="sprite-symbol-usage" /><use id="paragraph-usage" xlink:href="#paragraph" class="sprite-symbol-usage" /><use id="quote-usage" xlink:href="#quote" class="sprite-symbol-usage" /><use id="table-usage" xlink:href="#table" class="sprite-symbol-usage" /><use id="todolist-usage" xlink:href="#todolist" class="sprite-symbol-usage" /><use id="twitter-usage" xlink:href="#twitter" class="sprite-symbol-usage" /><use id="windows-usage" xlink:href="#windows" class="sprite-symbol-usage" /></svg>