<svg id="Layer_1" data-name="Layer 1" xmlns="http://www.w3.org/2000/svg" xmlns:xlink="http://www.w3.org/1999/xlink" width="586.78" height="487.04" viewBox="0 0 586.78 487.04">
  <defs>
    <linearGradient id="linear-gradient" x1="292.76" y1="377.54" x2="285.08" y2="617.88" gradientUnits="userSpaceOnUse">
      <stop offset="0.01"/>
      <stop offset="0.13" stop-opacity="0.69"/>
      <stop offset="1" stop-opacity="0"/>
    </linearGradient>
    <linearGradient id="linear-gradient-2" x1="164.85" y1="459.98" x2="315.06" y2="490.03" xlink:href="#linear-gradient"/>
    <linearGradient id="linear-gradient-3" x1="252.1" y1="493.8" x2="415.74" y2="404.73" xlink:href="#linear-gradient"/>
    <linearGradient id="linear-gradient-4" x1="290.8" y1="423.95" x2="241.15" y2="370.26" xlink:href="#linear-gradient"/>
    <linearGradient id="linear-gradient-5" x1="302.4" y1="333.51" x2="354.39" y2="349.7" xlink:href="#linear-gradient"/>
    <linearGradient id="linear-gradient-6" x1="323.76" y1="348.62" x2="409.84" y2="338.4" xlink:href="#linear-gradient"/>
    <linearGradient id="linear-gradient-7" x1="159.17" y1="332.52" x2="298.52" y2="369.59" xlink:href="#linear-gradient"/>
    <linearGradient id="linear-gradient-8" x1="479.01" y1="366.35" x2="426.59" y2="532.54" xlink:href="#linear-gradient"/>
    <linearGradient id="linear-gradient-9" x1="274.61" y1="230.62" x2="317.94" y2="230.62" gradientUnits="userSpaceOnUse">
      <stop offset="0" stop-color="#ecc4d7"/>
      <stop offset="0.42" stop-color="#efd4d1"/>
      <stop offset="1" stop-color="#f2eac9"/>
    </linearGradient>
    <linearGradient id="linear-gradient-10" x1="308.15" y1="145.86" x2="302.24" y2="331.04" xlink:href="#linear-gradient"/>
    <linearGradient id="linear-gradient-11" x1="280.96" y1="194.92" x2="424.41" y2="194.92" gradientTransform="translate(-18.12 36.05) rotate(-6.96)" xlink:href="#linear-gradient-9"/>
    <linearGradient id="linear-gradient-12" x1="283.58" y1="319.76" x2="441.2" y2="319.76" xlink:href="#linear-gradient"/>
    <linearGradient id="linear-gradient-13" x1="474.86" y1="291.57" x2="409.02" y2="332.8" gradientUnits="userSpaceOnUse">
      <stop offset="0.02" stop-color="#fff" stop-opacity="0"/>
      <stop offset="0.58" stop-color="#fff" stop-opacity="0.39"/>
      <stop offset="0.68" stop-color="#fff" stop-opacity="0.68"/>
      <stop offset="1" stop-color="#fff"/>
    </linearGradient>
    <linearGradient id="linear-gradient-14" x1="434.4" y1="381.23" x2="482.78" y2="381.23" xlink:href="#linear-gradient-9"/>
    <linearGradient id="linear-gradient-15" x1="210.56" y1="395.72" x2="211.01" y2="395.72" xlink:href="#linear-gradient"/>
    <linearGradient id="linear-gradient-16" x1="174.93" y1="476.24" x2="317.69" y2="456.22" xlink:href="#linear-gradient"/>
    <linearGradient id="linear-gradient-17" x1="139.35" y1="276.01" x2="290.85" y2="304.13" xlink:href="#linear-gradient"/>
    <linearGradient id="linear-gradient-18" x1="371.33" y1="499.35" x2="461.46" y2="535.79" xlink:href="#linear-gradient"/>
    <linearGradient id="linear-gradient-19" x1="304.92" y1="354.85" x2="453.47" y2="354.85" xlink:href="#linear-gradient"/>
    <linearGradient id="linear-gradient-20" x1="357.51" y1="329.92" x2="388.19" y2="360.61" xlink:href="#linear-gradient-13"/>
    <linearGradient id="linear-gradient-21" x1="350.87" y1="310.47" x2="387.8" y2="390.48" xlink:href="#linear-gradient-13"/>
    <linearGradient id="linear-gradient-22" x1="352.46" y1="275.45" x2="456.98" y2="275.45" xlink:href="#linear-gradient-13"/>
    <linearGradient id="linear-gradient-23" x1="460.49" y1="266.57" x2="460.49" y2="266.57" xlink:href="#linear-gradient"/>
    <linearGradient id="linear-gradient-24" x1="265.16" y1="365.54" x2="308.66" y2="365.54" xlink:href="#linear-gradient-9"/>
    <linearGradient id="linear-gradient-25" x1="515.64" y1="467.55" x2="356.15" y2="503.03" xlink:href="#linear-gradient"/>
    <linearGradient id="linear-gradient-26" x1="564.24" y1="435.31" x2="475.06" y2="455.15" xlink:href="#linear-gradient"/>
  </defs>
  <title>Analyze finance</title>
  <path d="M588.08,438.4c2.33-36.89-28.52-71.62-20.34-107.66,3-13.25,11.1-24.89,14.43-38.07,3.66-14.49,1.31-29.86-2.95-44.19a172.41,172.41,0,0,0-57.75-85.36c-39.62-31.4-91.34-43.76-141.83-46.46s-101,3.39-151.52,4.64c-32,.79-64.7-.27-95.2,9.47-36.16,11.54-66.53,37.81-87.52,69.44S12.17,268.6,4.81,305.84C2,320.25-.18,335.2,3,349.53c5.81,26,27.89,45.19,38.14,69.79,7.14,17.12,8.27,36.22,14.75,53.61,10.9,29.27,36.38,51.34,64.8,64.31s59.79,17.84,90.83,21.3a1137.88,1137.88,0,0,0,155.19,6.63c52-1.34,88.24-17.67,133.58-40.3C537.21,506.46,585.06,486.3,588.08,438.4Z" transform="translate(-1.43 -78.51)" fill="#68e1fd" opacity="0.18" style="isolation: isolate"/>
  <g>
    <path d="M475,502.52c4.58,1.23,9.64,3,11.69,7.26,4.8,10-10.43,17.11-21.48,17.73a1927.57,1927.57,0,0,1-340.93-11c-12.87-1.57-27.23-4.12-34.74-14.69C102.71,484.46,127.72,483,149.45,483,258,483.18,369.33,473.69,475,502.52Z" transform="translate(-1.43 -78.51)" fill="url(#linear-gradient)"/>
    <path d="M467.29,365.87,427.72,389l-5.57-1.51c-15.69-4.34-59.36-16.86-63.29-23.15-4.8-7.67-22.1-43.8-22.1-43.8l8.07-25,9.55-29.61s37.08,60.08,43.79,63.92S467.29,365.87,467.29,365.87Z" transform="translate(-1.43 -78.51)" fill="#68e1fd"/>
    <path d="M209.07,428.93s-12.36-17-27.28-8.52-25.56,75-8.52,87.36,34.09-24.72,34.09-24.72Z" transform="translate(-1.43 -78.51)" fill="#68e1fd"/>
    <path d="M209.07,428.93s-12.36-17-27.28-8.52-25.56,75-8.52,87.36,34.09-24.72,34.09-24.72Z" transform="translate(-1.43 -78.51)" fill="url(#linear-gradient-2)"/>
    <path d="M254.35,523.53s-54.66-42.18-56.57-49.85-9.59-24.93-1-36.44,26.84-8.63,26.84-8.63S263.93,477.51,254.35,523.53Z" transform="translate(-1.43 -78.51)" fill="#68e1fd"/>
    <path d="M254.35,523.53s-54.66-42.18-56.57-49.85-9.59-24.93-1-36.44,26.84-8.63,26.84-8.63S263.93,477.51,254.35,523.53Z" transform="translate(-1.43 -78.51)" fill="#3f3d56"/>
    <path d="M418.31,517.78c-9.59,9.6-49.87,9.6-58.5,1.92s-26.21-9.91-25.24-28.13l5.43-8-1-.26-5.34-1.4-3.53-36.36-33.36,9.68-6.28,1.81-3.84-57.24s61.68-34.49,85.66-29.68,16.3,60.4,17.26,63.28c.69,2,.88,25.41,3,41.16.32,2.31-6.59,3.28-6.2,5.18.72,3.34,8.85,7.07,9.91,8.3C402,494.77,427.89,508.19,418.31,517.78Z" transform="translate(-1.43 -78.51)" fill="#3f3d56"/>
    <path d="M362.48,483.05l-23.51.27-5.34-1.4-3.53-36.36-33.36,9.68-.31-.32-1.7-33.66s48.57-18.33,55-15.76S362.48,483.05,362.48,483.05Z" transform="translate(-1.43 -78.51)" fill="url(#linear-gradient-3)"/>
    <path d="M336.07,375.11,345.43,397,214.08,410.39c-13,.87-13.84-23.58-12.37-39.89.24-2.62.54-5,.86-7.08,4.29-27.78,12.1-65.26,18.4-93.31,4.49-20,8.24-35.18,9.41-38.7,3.83-11.51,46-12.14,46-12.14.22,0,.45,0,.66,0,43.17-2.65,77.33,46.7,77.33,46.7l-16.46,57-9.74,33.74,1.59,3.7,1.46,3.44Z" transform="translate(-1.43 -78.51)" fill="#68e1fd"/>
    <path d="M248.48,404.68c1.28-2.75,4.43-4,7.25-5.07a91.55,91.55,0,0,0,16-8.14,17.12,17.12,0,0,1,5-2.53,9.57,9.57,0,0,1,8.65,2.73c9.54,9.38-3,9.3-10.21,10.23C272.14,402.3,249.35,402.82,248.48,404.68Z" transform="translate(-1.43 -78.51)" fill="url(#linear-gradient-4)"/>
    <path d="M337.92,323l-9.74,33.74,1.59,3.7a10.94,10.94,0,0,0,.77,2.14c.22.45.44.88.69,1.3,1.88,3.16,4.68,6,4.93,9.58a7.32,7.32,0,0,1-.09,1.69c-.58,3.85-4,7-7.14,9.55s-6.37,5.16-10.25,6.28c-5.95,1.72-12.48-.43-17.43-4.14S292.63,378,289,372.93c-2.28-3.2-4.67-6.7-4.67-10.63a16.3,16.3,0,0,1,1.34-5.76c4.42-11.4,12.55-20.9,20.53-30.16l29.16-33.84c1-1.2,2.27-2.5,3.86-2.55,2.08-.07,3.52,2,4.55,3.78l1,1.77-8.07,25S337.18,321.45,337.92,323Z" transform="translate(-1.43 -78.51)" fill="url(#linear-gradient-5)"/>
    <path d="M422.15,387.52c-15.69-4.34-59.36-16.86-63.29-23.15-4.8-7.67-22.1-43.8-22.1-43.8l8.07-25,25.61,44.57c3.72,6.47,7.57,13.11,13.38,17.8,3.93,3.17,8.57,5.29,13.17,7.39S432.12,378,422.15,387.52Z" transform="translate(-1.43 -78.51)" fill="url(#linear-gradient-6)"/>
    <path d="M328.18,356.7,345.43,397,225.87,409.19a11.91,11.91,0,0,0,.58-6.91c-1.2-5.29-5.8-11.29-2.1-15.26a8.32,8.32,0,0,1,3.4-2,29.33,29.33,0,0,1,25.92,3.28c5.3,3.6,9.33,8.91,14.88,12.11s13.89,3.33,17.19-2.16c-7.17-11.58-.82-28-8.06-39.52-3.16-5-8.41-8.25-13.25-11.7a115.94,115.94,0,0,1-21-19.34c-1.79-2.12-3.57-4.43-3.94-7.17a15.66,15.66,0,0,1,1-6.67c2.49-8.29,9.53-19.09-.46-23.5-7.5-3.31-18.81,3.21-23.74,8.38-.7.73-1.36,1.47-2,2.25,7.08-33.85,14.38-64.41,16.11-69.59,3.83-11.51,46-12.14,46-12.14,43.48-3.19,78,46.66,78,46.66Z" transform="translate(-1.43 -78.51)" fill="none"/>
    <path d="M285.74,398.27c-18.93-24.63-71.09-17.93-72-17-3.7,4,2,16.12,3.19,21.41.52,2.32,9.77,4.27,8.92,6.47l-11.79,1.2c-15,1-13.82-32.08-11.51-47,2.84-18.4,7.23-41.07,11.7-62.42.63-.78,1.29-1.52,2-2.25,4.93-5.17,16.24-11.69,23.74-8.38,10,4.41,2.95,15.21.46,23.5a15.66,15.66,0,0,0-1,6.67c.37,2.74,2.15,5,3.94,7.17a115.94,115.94,0,0,0,21,19.34c4.84,3.45,10.09,6.68,13.25,11.7C284.92,370.27,278.57,386.69,285.74,398.27Z" transform="translate(-1.43 -78.51)" fill="url(#linear-gradient-7)"/>
    <path d="M443.87,359.86l66.76,34.65s3,5.2,1.18,10.17-8,15.11-17.15,13.32-66.58-32.54-66.58-32.54Z" transform="translate(-1.43 -78.51)" fill="#68e1fd"/>
    <path d="M443.87,359.86l66.76,34.65s3,5.2,1.18,10.17-8,15.11-17.15,13.32-66.58-32.54-66.58-32.54Z" transform="translate(-1.43 -78.51)" fill="url(#linear-gradient-8)"/>
    <path d="M300.8,261.61c-3.12.88-6.48,0-9.4-1.45-9.94-4.87-16.12-15.84-16.73-26.89s3.82-22,10.68-30.69c1.29-1.64,3-3.35,5-3.3s3.56,1.66,4.84,3.19c7.8,9.31,20.71,24.66,22.55,37.07.94,6.41-2.54,6.92-6.72,11.94C308,255.2,305.89,260.17,300.8,261.61Z" transform="translate(-1.43 -78.51)" fill="url(#linear-gradient-9)"/>
    <path d="M290,225.23s-.86,30.26,5.11,35.8,11.08-5.11,11.08-5.11l14.49-15.77Z" transform="translate(-1.43 -78.51)" fill="url(#linear-gradient-10)"/>
    <path d="M376.56,235.07c-4.21,4.65-8.62,9.18-13.83,12.67-10.43,7-23.58,9.3-36,7.73-9.91-1.26-19.73-5-26.92-11.94-8.76-8.42-12.88-20.83-13.31-33s2.52-24.15,6.14-35.75c2.68-8.6,5.81-17.18,10.8-24.68,14.63-22,42.87-31.1,69.29-31.9,13.11-.4,27,1.11,37.62,8.81,7.73,5.6,14.17,16.56,12.78,26.41-1.1,7.79-7.32,15.86-10.06,23.28C405,198.55,392.12,217.87,376.56,235.07Z" transform="translate(-1.43 -78.51)" fill="url(#linear-gradient-11)"/>
    <path d="M426.45,173.39a31,31,0,0,1-6.19,9.89,19.72,19.72,0,0,1-23.06,3.8c-5.57-3-9.62-8.48-14.58-12.54-10.38-8.51-25.57-9.93-36.41-2.15-3.09,2.21-6,5.17-9.65,5.67-4.6.62-9.09-2.87-13.66-2-4.26.77-7.21,5-9.37,9.14s-4.2,8.68-8,11l1.38-11.3c.41-3.37.81-6.86-.08-10.12s-3.44-6.22-6.52-6.23-5.7,2.95-6.76,6.19-1,6.76-1.34,10.19c-.4,4.2-1.46,8.46-3.88,11.74s1.19,9.37-2.54,8.4c-4-1.06-14.34-9.22-16-13.37-5.64-13.88-3.77-30-.8-44.82,2.42-12.1,5.54-24.14,10.83-35.07S292.75,91,302.62,85.09a47.58,47.58,0,0,1,28.27-6.43,53.41,53.41,0,0,1,11.72,2.28,19.18,19.18,0,0,0,4.67,1.13c2.42.14,4.76-.8,7.1-1.51,14.67-4.47,30.33.16,44.48,6.36,7.59,3.34,15.24,7.31,20.72,14,7.91,9.66,9.51,22.71,9.82,35.21C429.71,149,431.54,161.18,426.45,173.39Z" transform="translate(-1.43 -78.51)" fill="#3f3d56"/>
    <path d="M441.2,288.36c-25.73-16.5-73.05-4-107.57,28.93-23.43,22.36-35.12,48.57-33.23,69.26-.82-.51-1.61-1.07-2.38-1.64C272.9,366,281.4,323.13,317,289.16s84.83-46.2,110-27.29C435.55,268.33,440.22,277.6,441.2,288.36Z" transform="translate(-1.43 -78.51)" fill="#68e1fd"/>
    <path d="M441.2,288.36c-25.73-16.5-73.05-4-107.57,28.93-23.43,22.36-35.12,48.57-33.23,69.26-.82-.51-1.61-1.07-2.38-1.64C272.9,366,281.4,323.13,317,289.16s84.83-46.2,110-27.29C435.55,268.33,440.22,277.6,441.2,288.36Z" transform="translate(-1.43 -78.51)" fill="url(#linear-gradient-12)"/>
    <path d="M344.79,426.48c-12.94,0-24.24-3.32-32.88-9.83-9.35-7-14.89-17.29-16-29.68-2.11-23,10.83-50.27,34.61-73,35.86-34.22,85.57-47.16,113.16-29.46.86.53,1.74,1.14,2.65,1.83,9.8,7.37,15.39,18.22,16.16,31.39,1.33,22.6-11.66,49.24-34.74,71.27h0c-17.78,17-39.42,29.25-60.94,34.59A91.69,91.69,0,0,1,344.79,426.48Zm68.62-140.85a83.91,83.91,0,0,0-21.53,3c-19.43,5.19-39,16.52-55.12,31.9-21.46,20.49-33.66,45.61-31.84,65.57.91,9.91,5.1,17.73,12.45,23.25,23.38,17.61,70.07,5.53,104.08-26.93,21.17-20.21,33.12-44.2,31.95-64.17-.62-10.42-4.95-19-12.55-24.66-.71-.53-1.38-1-2.05-1.42C432,287.84,423.3,285.63,413.41,285.63Z" transform="translate(-1.43 -78.51)" fill="#68e1fd"/>
    <g opacity="0.69" style="isolation: isolate">
      <path d="M462.46,317.76c-.77-13.17-6.35-24-16.16-31.4-.92-.68-1.79-1.29-2.64-1.82-27.6-17.7-77.31-4.76-113.17,29.46-23.78,22.7-36.72,50-34.61,73,1.14,12.39,6.68,22.66,16,29.68a43,43,0,0,0,7.77,4.66,58.54,58.54,0,0,0,25.12,5.16,91.51,91.51,0,0,0,22-2.85,126.6,126.6,0,0,0,31.88-12.94A148,148,0,0,0,427.72,389c16-15.31,27.21-32.84,32.07-49.71A64.16,64.16,0,0,0,462.46,317.76Zm-41,64.7c-34,32.46-80.69,44.54-104.09,26.93-7.34-5.52-11.52-13.34-12.44-23.26-1.83-19.94,10.38-45.07,31.84-65.56,16.12-15.37,35.69-26.71,55.12-31.9a83.9,83.9,0,0,1,21.52-3c9.89,0,18.58,2.21,25.4,6.58.67.42,1.34.89,2,1.42,7.61,5.71,11.94,14.25,12.56,24.67C454.56,338.26,442.62,362.25,421.45,382.46Z" transform="translate(-1.43 -78.51)" fill="url(#linear-gradient-13)"/>
    </g>
    <path d="M452,366.9c-.78,3.48-1.63,7.12-4,9.82-3.23,3.74-8.61,4.88-12.22,8.24a4.87,4.87,0,0,0-1.21,1.58c-.77,1.9.72,4,2.51,5a8.75,8.75,0,0,0,9.89-1.17,35.09,35.09,0,0,0-4.06,2.05c-.59.35-1.23.81-1.29,1.5s.68,1.39,1.38,1.76A10.81,10.81,0,0,0,455.21,394l-3.64,2.11c-.75.44-1.6,1.08-1.48,1.93.09.64.7,1.06,1.29,1.34A10.27,10.27,0,0,0,463,397.17l-7.46,4.4a6.35,6.35,0,0,0,6.21,2.36,14.64,14.64,0,0,0,6.28-3,45.31,45.31,0,0,0,10.14-10.22c3.38-4.73,5.89-10.79,4-16.3-1.93-5.68-7.77-8.91-13.15-11.55-4-2-8.22-3.95-12.72-4.33-2.35-.2-3.18-.39-3.69,1.73S452.46,364.76,452,366.9Z" transform="translate(-1.43 -78.51)" fill="url(#linear-gradient-14)"/>
    <path d="M271.6,341.36,269,374.23s-51.54-2.51-67.28-3.73c-1.86-.15-3.22-.27-3.93-.37a6.45,6.45,0,0,1-3-1.49c-6.43-5.17-14-22.95-12.35-43.58,1.91-24,47.94-93.65,47.94-93.65a61.33,61.33,0,0,1,10.9,8.55c22.72,22.6,9.23,50.58,9.23,50.58s-24,24.93-20.13,33.56S271.6,341.36,271.6,341.36Z" transform="translate(-1.43 -78.51)" fill="#68e1fd"/>
    <path d="M261.74,524.53a31.24,31.24,0,0,1-7.39-1l-.49-.14c-30.53-8.72-39.78-113-39.78-113l.22,0,22.69-3.3,49.63-7.24,9,25.93S303.32,524.72,261.74,524.53Z" transform="translate(-1.43 -78.51)" fill="#3f3d56"/>
    <path d="M211,395.85l-.45-.16S210.69,395.41,211,395.85Z" transform="translate(-1.43 -78.51)" fill="url(#linear-gradient-15)"/>
    <path d="M266.17,523.54a16.15,16.15,0,0,1-4.43,1,16.69,16.69,0,0,1-7.88-1.13,18.31,18.31,0,0,1-8.15-6.9c-8.31-12.14-23-39-28.12-81.82-1.29-10.82-2.38-18.65-3.29-24.33l22.69-3.3c2.78,7.91,11.49,33.52,12.56,47.45,1.28,16.62-9.58,46.67,5.12,55.61S266.17,523.54,266.17,523.54Z" transform="translate(-1.43 -78.51)" fill="url(#linear-gradient-16)"/>
    <path d="M285.74,398.27c-3.3,5.49-11.64,5.35-17.19,2.16s-9.58-8.51-14.88-12.11A29.33,29.33,0,0,0,227.75,385a8.32,8.32,0,0,0-3.4,2c-3.7,4,.9,10,2.1,15.26a11.91,11.91,0,0,1-.58,6.91,14.73,14.73,0,0,1-7.56,8.09c-5.62,2.52-12.41,1.49-17.67-1.71-9.06-5.52-13.52-16.61-13.84-27.23s2.86-21,6-31.11q4.51-14.52,9-29.05c3-9.58,6.14-19.48,12.42-27.18.63-.78,1.29-1.52,2-2.25,4.93-5.17,16.24-11.69,23.74-8.38,10,4.41,2.95,15.21.46,23.5a15.66,15.66,0,0,0-1,6.67c.37,2.74,2.15,5,3.94,7.17a115.94,115.94,0,0,0,21,19.34c4.84,3.45,10.09,6.68,13.25,11.7C284.92,370.27,278.57,386.69,285.74,398.27Z" transform="translate(-1.43 -78.51)" fill="none"/>
    <path d="M277.05,219.23c-.18,4-1.47,8-3.85,10.41-5.68,5.73-20.81,7-28.39,9.19-1.18.34-2.37.69-3.53,1.13a14.1,14.1,0,0,0-3.75,2c-2.36,1.81-3.84,4.52-5.26,7.14q-5.66,10.5-11.3,21L205,299.74c-6.15,11.44-12.44,23.33-13.28,36.29-.7,10.91,2.53,21.71,3,32.61-6.43-5.17-14-22.95-12.35-43.58,1.91-24,47.94-93.65,47.94-93.65,3.83-11.51,46-12.14,46-12.14C276.61,219.26,276.84,219.23,277.05,219.23Z" transform="translate(-1.43 -78.51)" fill="url(#linear-gradient-17)"/>
    <path d="M418.31,517.78c-9.59,9.6-49.87,9.6-58.5,1.92s-26.21-9.91-25.24-28.13l5.43-8s34,1.82,46.34-3.83c.72,3.34,8.85,7.07,9.91,8.3C402,494.77,427.89,508.19,418.31,517.78Z" transform="translate(-1.43 -78.51)" fill="url(#linear-gradient-18)"/>
    <path d="M421.45,382.46c-34,32.46-80.69,44.54-104.09,26.93-7.34-5.52-11.52-13.34-12.44-23.26,0,0,13.67,30,76.31-6.42s57.57-87.5,57.57-87.5c.67.42,1.34.89,2,1.42,7.61,5.71,11.94,14.25,12.56,24.67C454.56,338.26,442.62,362.25,421.45,382.46Z" transform="translate(-1.43 -78.51)" fill="#68e1fd"/>
    <path d="M421.45,382.46c-34,32.46-80.69,44.54-104.09,26.93-7.34-5.52-11.52-13.34-12.44-23.26,0,0,13.67,30,76.31-6.42s57.57-87.5,57.57-87.5c.67.42,1.34.89,2,1.42,7.61,5.71,11.94,14.25,12.56,24.67C454.56,338.26,442.62,362.25,421.45,382.46Z" transform="translate(-1.43 -78.51)" fill="url(#linear-gradient-19)"/>
    <g opacity="0.69" style="isolation: isolate">
      <path d="M421.14,382.15c-34,32.45-80.7,44.53-104.1,26.92-7.34-5.52-11.52-13.34-12.44-23.26-1.82-19.94,10.38-45.07,31.84-65.56,16.12-15.37,35.69-26.71,55.13-31.9a83.78,83.78,0,0,1,21.52-3c9.88,0,18.57,2.21,25.39,6.58.67.42,1.34.89,2,1.42,7.61,5.71,11.94,14.25,12.56,24.67C454.25,337.94,442.31,361.93,421.14,382.15Z" transform="translate(-1.43 -78.51)" fill="url(#linear-gradient-20)"/>
    </g>
    <path d="M401.68,286.17l-99.07,98s2.55,18.53,8.31,16.62L425,287.29A111.7,111.7,0,0,0,401.68,286.17Z" transform="translate(-1.43 -78.51)" fill="url(#linear-gradient-21)"/>
    <path d="M430.93,264.81,457,298.05s-24.77-33.72-83-12.3l-21.53-21.58S401.21,238.29,430.93,264.81Z" transform="translate(-1.43 -78.51)" fill="#68e1fd"/>
    <path d="M430.93,264.81,457,298.05s-24.77-33.72-83-12.3l-21.53-21.58S401.21,238.29,430.93,264.81Z" transform="translate(-1.43 -78.51)" fill="url(#linear-gradient-22)"/>
    <path d="M460.49,266.57" transform="translate(-1.43 -78.51)" fill="url(#linear-gradient-23)"/>
    <path d="M289.21,326.25c2.18,3.17,2.05,7.45.85,11.11s-3.34,6.91-5,10.37c-1.11,2.24-2,4.82-1.32,7.22a11.43,11.43,0,0,0,2.65,4c4.16,4.64,9.08,9.64,15.31,9.73,2.24,0,5.42.1,5.58,2.33a3.36,3.36,0,0,1-.93,2.24,14.23,14.23,0,0,1-10.53,5.3l10.56-.11a2.4,2.4,0,0,1,2.08.66,2.21,2.21,0,0,1,.06,1.9,15.38,15.38,0,0,1-10.16,10.19,14.91,14.91,0,0,0,5.68-1.42c2.83,2.67,1.05,8.38-2.8,9,1.36-.86,3.29-1.69,4.42-.53s.27,3-.87,4.12c-4.91,4.64-13.37,2.3-18.13-2.5s-7.24-11.37-11.17-16.88c-2.1-2.94-4.61-5.59-6.46-8.7C256.68,353.52,276.94,339.68,289.21,326.25Z" transform="translate(-1.43 -78.51)" fill="url(#linear-gradient-24)"/>
  </g>
  <g>
    <path d="M465.41,530.67v-8.49c-3.1-.84-6.11-1.48-9-2.48a26.17,26.17,0,0,1-13.83-10.37,25.77,25.77,0,0,1-4-14.4h16.59c.77,6.18,3.77,10.59,10.17,12.3V484.71c-3.33-1-6.65-1.88-9.94-2.92a23.21,23.21,0,0,1-9.64-5.5,19.07,19.07,0,0,1-5.37-10.45,26.83,26.83,0,0,1,1.05-14.45A24,24,0,0,1,456,437a74.27,74.27,0,0,1,8.39-2.17c.31-.08.62-.13,1-.2V423.32h15.52v1.1c0,3.21,0,6.43,0,9.65,0,.79.24,1,1,1.2A32.51,32.51,0,0,1,496.38,442a23.42,23.42,0,0,1,8.24,14.42c.27,1.53.39,3.09.59,4.73H488.33A11.82,11.82,0,0,0,481,450.47v21c.56.13,1.18.3,1.82.43a60.36,60.36,0,0,1,13.23,4.23c6.81,3.21,10.57,8.59,11.46,16,.8,6.62-.4,12.81-4.37,18.31a25.41,25.41,0,0,1-12.52,9.28c-3.11,1.07-6.35,1.79-9.7,2.71v8.23ZM481,487.94V507.5a14.25,14.25,0,0,0,6.86-3c3.61-3,4.88-10.32-.4-13.55A58.38,58.38,0,0,0,481,487.94Zm-15.64-20V449a56.33,56.33,0,0,0-5.92,3c-4.31,2.88-5,10.85.51,13.64C461.63,466.52,463.46,467.13,465.35,467.9Z" transform="translate(-1.43 -78.51)" fill="#68e1fd"/>
    <path d="M465.41,530.67v-8.49c-3.1-.84-6.11-1.48-9-2.48a26.17,26.17,0,0,1-13.83-10.37,25.77,25.77,0,0,1-4-14.4h16.59c.77,6.18,3.77,10.59,10.17,12.3V484.71c-3.33-1-6.65-1.88-9.94-2.92a23.21,23.21,0,0,1-9.64-5.5,19.07,19.07,0,0,1-5.37-10.45,26.83,26.83,0,0,1,1.05-14.45A24,24,0,0,1,456,437a74.27,74.27,0,0,1,8.39-2.17c.31-.08.62-.13,1-.2V423.32h15.52v1.1c0,3.21,0,6.43,0,9.65,0,.79.24,1,1,1.2A32.51,32.51,0,0,1,496.38,442a23.42,23.42,0,0,1,8.24,14.42c.27,1.53.39,3.09.59,4.73H488.33A11.82,11.82,0,0,0,481,450.47v21c.56.13,1.18.3,1.82.43a60.36,60.36,0,0,1,13.23,4.23c6.81,3.21,10.57,8.59,11.46,16,.8,6.62-.4,12.81-4.37,18.31a25.41,25.41,0,0,1-12.52,9.28c-3.11,1.07-6.35,1.79-9.7,2.71v8.23ZM481,487.94V507.5a14.25,14.25,0,0,0,6.86-3c3.61-3,4.88-10.32-.4-13.55A58.38,58.38,0,0,0,481,487.94Zm-15.64-20V449a56.33,56.33,0,0,0-5.92,3c-4.31,2.88-5,10.85.51,13.64C461.63,466.52,463.46,467.13,465.35,467.9Z" transform="translate(-1.43 -78.51)" fill="url(#linear-gradient-25)"/>
    <path d="M454.86,531V522.5c-3.09-.84-6.1-1.49-9-2.48A26.21,26.21,0,0,1,432,509.65a25.68,25.68,0,0,1-4-14.4h16.59c.76,6.17,3.76,10.59,10.16,12.3V485c-3.32-1-6.65-1.88-9.93-2.92a23.25,23.25,0,0,1-9.65-5.5,19.06,19.06,0,0,1-5.36-10.45,26.73,26.73,0,0,1,1-14.45,24.06,24.06,0,0,1,14.56-14.44,74.27,74.27,0,0,1,8.39-2.17c.31-.08.62-.13,1-.21V423.64h15.52v1.1c0,3.21,0,6.43,0,9.65,0,.79.25,1,1,1.2a32.59,32.59,0,0,1,14.47,6.76,23.41,23.41,0,0,1,8.23,14.42c.27,1.53.39,3.09.59,4.73H477.78a11.81,11.81,0,0,0-7.3-10.71v21c.55.13,1.18.3,1.81.43a60.36,60.36,0,0,1,13.23,4.23c6.82,3.21,10.57,8.59,11.47,16,.8,6.62-.41,12.81-4.38,18.31A25.27,25.27,0,0,1,480.1,520c-3.12,1.08-6.36,1.8-9.71,2.72V531Zm15.58-42.73v19.56a14.28,14.28,0,0,0,6.87-3c3.6-3,4.87-10.32-.4-13.55A58.56,58.56,0,0,0,470.44,488.26Zm-15.64-20v-18.9a56.33,56.33,0,0,0-5.92,3c-4.31,2.88-5,10.85.51,13.64C451.09,466.84,452.91,467.45,454.8,468.22Z" transform="translate(-1.43 -78.51)" fill="#68e1fd"/>
  </g>
  <g>
    <path d="M536.15,470.61v-4.75c-1.73-.47-3.41-.83-5-1.39a14.69,14.69,0,0,1-7.73-5.8,14.3,14.3,0,0,1-2.23-8.05h9.27c.43,3.45,2.11,5.92,5.69,6.88V444.9c-1.86-.54-3.72-1-5.56-1.63a13,13,0,0,1-5.39-3.07,10.65,10.65,0,0,1-3-5.85,15,15,0,0,1,.58-8.08,13.43,13.43,0,0,1,8.15-8.07,43,43,0,0,1,4.69-1.22l.56-.11v-6.29h8.68v.61c0,1.8,0,3.6,0,5.4,0,.44.14.58.56.67a18.28,18.28,0,0,1,8.09,3.78,13.11,13.11,0,0,1,4.61,8.06c.15.86.21,1.73.33,2.64H549a6.6,6.6,0,0,0-4.09-6v11.75c.31.08.66.17,1,.24a33.42,33.42,0,0,1,7.4,2.37,10.7,10.7,0,0,1,6.41,8.94,14.06,14.06,0,0,1-9.45,15.42c-1.74.61-3.55,1-5.43,1.52v4.61Zm8.71-23.9v10.94a7.93,7.93,0,0,0,3.84-1.7c2-1.65,2.73-5.77-.22-7.57A31,31,0,0,0,544.86,446.71Zm-8.74-11.2V424.94a31,31,0,0,0-3.31,1.68c-2.41,1.61-2.8,6.07.28,7.63C534,434.73,535.06,435.07,536.12,435.51Z" transform="translate(-1.43 -78.51)" fill="#68e1fd"/>
    <path d="M536.15,470.61v-4.75c-1.73-.47-3.41-.83-5-1.39a14.69,14.69,0,0,1-7.73-5.8,14.3,14.3,0,0,1-2.23-8.05h9.27c.43,3.45,2.11,5.92,5.69,6.88V444.9c-1.86-.54-3.72-1-5.56-1.63a13,13,0,0,1-5.39-3.07,10.65,10.65,0,0,1-3-5.85,15,15,0,0,1,.58-8.08,13.43,13.43,0,0,1,8.15-8.07,43,43,0,0,1,4.69-1.22l.56-.11v-6.29h8.68v.61c0,1.8,0,3.6,0,5.4,0,.44.14.58.56.67a18.28,18.28,0,0,1,8.09,3.78,13.11,13.11,0,0,1,4.61,8.06c.15.86.21,1.73.33,2.64H549a6.6,6.6,0,0,0-4.09-6v11.75c.31.08.66.17,1,.24a33.42,33.42,0,0,1,7.4,2.37,10.7,10.7,0,0,1,6.41,8.94,14.06,14.06,0,0,1-9.45,15.42c-1.74.61-3.55,1-5.43,1.52v4.61Zm8.71-23.9v10.94a7.93,7.93,0,0,0,3.84-1.7c2-1.65,2.73-5.77-.22-7.57A31,31,0,0,0,544.86,446.71Zm-8.74-11.2V424.94a31,31,0,0,0-3.31,1.68c-2.41,1.61-2.8,6.07.28,7.63C534,434.73,535.06,435.07,536.12,435.51Z" transform="translate(-1.43 -78.51)" fill="url(#linear-gradient-26)"/>
    <path d="M530.26,470.79V466c-1.74-.47-3.42-.83-5-1.39a14.69,14.69,0,0,1-7.73-5.8,14.38,14.38,0,0,1-2.23-8.05h9.28c.42,3.45,2.1,5.92,5.68,6.88v-12.6c-1.86-.54-3.72-1.05-5.56-1.63a13,13,0,0,1-5.39-3.07,10.72,10.72,0,0,1-3-5.85,14.92,14.92,0,0,1,.59-8.08,13.48,13.48,0,0,1,8.14-8.08,43,43,0,0,1,4.69-1.21l.56-.11v-6.29h8.68v.61c0,1.8,0,3.6,0,5.39,0,.45.14.59.57.68a18.24,18.24,0,0,1,8.08,3.78,13,13,0,0,1,4.61,8.06c.15.86.22,1.73.33,2.64h-9.44a6.6,6.6,0,0,0-4.09-6v11.75c.31.08.67.17,1,.24a33.26,33.26,0,0,1,7.4,2.37,10.7,10.7,0,0,1,6.41,8.94,14,14,0,0,1-2.45,10.23,14.18,14.18,0,0,1-7,5.19c-1.75.61-3.56,1-5.43,1.52v4.61Zm8.71-23.9v10.94a7.94,7.94,0,0,0,3.83-1.7c2-1.65,2.73-5.77-.22-7.57A31.6,31.6,0,0,0,539,446.89Zm-8.75-11.21V425.12a31,31,0,0,0-3.31,1.68c-2.41,1.61-2.79,6.07.28,7.63C528.14,434.91,529.16,435.25,530.22,435.68Z" transform="translate(-1.43 -78.51)" fill="#68e1fd"/>
  </g>
</svg>
